%TF.GenerationSoftware,KiCad,Pcbnew,8.0.1-8.0.1-1~ubuntu22.04.1*%
%TF.CreationDate,2024-03-29T08:39:18+01:00*%
%TF.ProjectId,usb2mid,75736232-6d69-4642-9e6b-696361645f70,rev?*%
%TF.SameCoordinates,Original*%
%TF.FileFunction,Copper,L1,Top*%
%TF.FilePolarity,Positive*%
%FSLAX46Y46*%
G04 Gerber Fmt 4.6, Leading zero omitted, Abs format (unit mm)*
G04 Created by KiCad (PCBNEW 8.0.1-8.0.1-1~ubuntu22.04.1) date 2024-03-29 08:39:18*
%MOMM*%
%LPD*%
G01*
G04 APERTURE LIST*
G04 Aperture macros list*
%AMRoundRect*
0 Rectangle with rounded corners*
0 $1 Rounding radius*
0 $2 $3 $4 $5 $6 $7 $8 $9 X,Y pos of 4 corners*
0 Add a 4 corners polygon primitive as box body*
4,1,4,$2,$3,$4,$5,$6,$7,$8,$9,$2,$3,0*
0 Add four circle primitives for the rounded corners*
1,1,$1+$1,$2,$3*
1,1,$1+$1,$4,$5*
1,1,$1+$1,$6,$7*
1,1,$1+$1,$8,$9*
0 Add four rect primitives between the rounded corners*
20,1,$1+$1,$2,$3,$4,$5,0*
20,1,$1+$1,$4,$5,$6,$7,0*
20,1,$1+$1,$6,$7,$8,$9,0*
20,1,$1+$1,$8,$9,$2,$3,0*%
%AMFreePoly0*
4,1,19,0.550000,-0.750000,0.000000,-0.750000,0.000000,-0.744911,-0.071157,-0.744911,-0.207708,-0.704816,-0.327430,-0.627875,-0.420627,-0.520320,-0.479746,-0.390866,-0.500000,-0.250000,-0.500000,0.250000,-0.479746,0.390866,-0.420627,0.520320,-0.327430,0.627875,-0.207708,0.704816,-0.071157,0.744911,0.000000,0.744911,0.000000,0.750000,0.550000,0.750000,0.550000,-0.750000,0.550000,-0.750000,
$1*%
%AMFreePoly1*
4,1,19,0.000000,0.744911,0.071157,0.744911,0.207708,0.704816,0.327430,0.627875,0.420627,0.520320,0.479746,0.390866,0.500000,0.250000,0.500000,-0.250000,0.479746,-0.390866,0.420627,-0.520320,0.327430,-0.627875,0.207708,-0.704816,0.071157,-0.744911,0.000000,-0.744911,0.000000,-0.750000,-0.550000,-0.750000,-0.550000,0.750000,0.000000,0.750000,0.000000,0.744911,0.000000,0.744911,
$1*%
G04 Aperture macros list end*
%TA.AperFunction,EtchedComponent*%
%ADD10C,0.000000*%
%TD*%
%TA.AperFunction,SMDPad,CuDef*%
%ADD11FreePoly0,0.000000*%
%TD*%
%TA.AperFunction,SMDPad,CuDef*%
%ADD12R,1.000000X1.500000*%
%TD*%
%TA.AperFunction,SMDPad,CuDef*%
%ADD13FreePoly1,0.000000*%
%TD*%
%TA.AperFunction,SMDPad,CuDef*%
%ADD14RoundRect,0.150000X-0.425000X0.150000X-0.425000X-0.150000X0.425000X-0.150000X0.425000X0.150000X0*%
%TD*%
%TA.AperFunction,SMDPad,CuDef*%
%ADD15RoundRect,0.075000X-0.500000X0.075000X-0.500000X-0.075000X0.500000X-0.075000X0.500000X0.075000X0*%
%TD*%
%TA.AperFunction,ComponentPad*%
%ADD16O,2.100000X1.000000*%
%TD*%
%TA.AperFunction,ComponentPad*%
%ADD17O,1.800000X1.000000*%
%TD*%
%TA.AperFunction,SMDPad,CuDef*%
%ADD18RoundRect,0.140000X-0.170000X0.140000X-0.170000X-0.140000X0.170000X-0.140000X0.170000X0.140000X0*%
%TD*%
%TA.AperFunction,SMDPad,CuDef*%
%ADD19RoundRect,0.140000X0.140000X0.170000X-0.140000X0.170000X-0.140000X-0.170000X0.140000X-0.170000X0*%
%TD*%
%TA.AperFunction,SMDPad,CuDef*%
%ADD20RoundRect,0.140000X0.170000X-0.140000X0.170000X0.140000X-0.170000X0.140000X-0.170000X-0.140000X0*%
%TD*%
%TA.AperFunction,SMDPad,CuDef*%
%ADD21RoundRect,0.218750X-0.256250X0.218750X-0.256250X-0.218750X0.256250X-0.218750X0.256250X0.218750X0*%
%TD*%
%TA.AperFunction,SMDPad,CuDef*%
%ADD22RoundRect,0.150000X-0.512500X-0.150000X0.512500X-0.150000X0.512500X0.150000X-0.512500X0.150000X0*%
%TD*%
%TA.AperFunction,SMDPad,CuDef*%
%ADD23RoundRect,0.200000X-0.275000X0.200000X-0.275000X-0.200000X0.275000X-0.200000X0.275000X0.200000X0*%
%TD*%
%TA.AperFunction,SMDPad,CuDef*%
%ADD24RoundRect,0.250000X-0.262500X-0.450000X0.262500X-0.450000X0.262500X0.450000X-0.262500X0.450000X0*%
%TD*%
%TA.AperFunction,SMDPad,CuDef*%
%ADD25R,2.200000X2.800000*%
%TD*%
%TA.AperFunction,SMDPad,CuDef*%
%ADD26R,2.800000X2.800000*%
%TD*%
%TA.AperFunction,SMDPad,CuDef*%
%ADD27RoundRect,0.225000X-0.225000X-0.250000X0.225000X-0.250000X0.225000X0.250000X-0.225000X0.250000X0*%
%TD*%
%TA.AperFunction,SMDPad,CuDef*%
%ADD28RoundRect,0.140000X-0.140000X-0.170000X0.140000X-0.170000X0.140000X0.170000X-0.140000X0.170000X0*%
%TD*%
%TA.AperFunction,SMDPad,CuDef*%
%ADD29RoundRect,0.062500X0.375000X0.062500X-0.375000X0.062500X-0.375000X-0.062500X0.375000X-0.062500X0*%
%TD*%
%TA.AperFunction,SMDPad,CuDef*%
%ADD30RoundRect,0.062500X0.062500X0.375000X-0.062500X0.375000X-0.062500X-0.375000X0.062500X-0.375000X0*%
%TD*%
%TA.AperFunction,SMDPad,CuDef*%
%ADD31R,3.450000X3.450000*%
%TD*%
%TA.AperFunction,SMDPad,CuDef*%
%ADD32RoundRect,0.150000X0.512500X0.150000X-0.512500X0.150000X-0.512500X-0.150000X0.512500X-0.150000X0*%
%TD*%
%TA.AperFunction,SMDPad,CuDef*%
%ADD33RoundRect,0.135000X-0.135000X-0.185000X0.135000X-0.185000X0.135000X0.185000X-0.135000X0.185000X0*%
%TD*%
%TA.AperFunction,ViaPad*%
%ADD34C,0.450000*%
%TD*%
%TA.AperFunction,Conductor*%
%ADD35C,0.250000*%
%TD*%
%TA.AperFunction,Conductor*%
%ADD36C,0.200000*%
%TD*%
%TA.AperFunction,Conductor*%
%ADD37C,0.350000*%
%TD*%
G04 APERTURE END LIST*
D10*
%TA.AperFunction,EtchedComponent*%
%TO.C,JP1*%
G36*
X42600000Y-52300000D02*
G01*
X42100000Y-52300000D01*
X42100000Y-51700000D01*
X42600000Y-51700000D01*
X42600000Y-52300000D01*
G37*
%TD.AperFunction*%
%TA.AperFunction,EtchedComponent*%
%TO.C,JP2*%
G36*
X42600000Y-54800000D02*
G01*
X42100000Y-54800000D01*
X42100000Y-54200000D01*
X42600000Y-54200000D01*
X42600000Y-54800000D01*
G37*
%TD.AperFunction*%
%TD*%
D11*
%TO.P,JP1,1,A*%
%TO.N,/SINK*%
X41700000Y-52000000D03*
D12*
%TO.P,JP1,2,C*%
%TO.N,/JACK_T*%
X43000000Y-52000000D03*
D13*
%TO.P,JP1,3,B*%
%TO.N,/SOURCE*%
X44300000Y-52000000D03*
%TD*%
D14*
%TO.P,J1,A1,GND*%
%TO.N,GND*%
X28780000Y-46800000D03*
%TO.P,J1,A4,VBUS*%
%TO.N,VBUS*%
X28780000Y-47600000D03*
D15*
%TO.P,J1,A5,CC1*%
%TO.N,/CC1*%
X28780000Y-48750000D03*
%TO.P,J1,A6,D+*%
%TO.N,/D+*%
X28780000Y-49750000D03*
%TO.P,J1,A7,D-*%
%TO.N,/D-*%
X28780000Y-50250000D03*
%TO.P,J1,A8,SBU1*%
%TO.N,unconnected-(J1-SBU1-PadA8)*%
X28780000Y-51250000D03*
D14*
%TO.P,J1,A9,VBUS*%
%TO.N,VBUS*%
X28780000Y-52400000D03*
%TO.P,J1,A12,GND*%
%TO.N,GND*%
X28780000Y-53200000D03*
%TO.P,J1,B1,GND*%
X28780000Y-53200000D03*
%TO.P,J1,B4,VBUS*%
%TO.N,VBUS*%
X28780000Y-52400000D03*
D15*
%TO.P,J1,B5,CC2*%
%TO.N,/CC2*%
X28780000Y-51750000D03*
%TO.P,J1,B6,D+*%
%TO.N,/D+*%
X28780000Y-50750000D03*
%TO.P,J1,B7,D-*%
%TO.N,/D-*%
X28780000Y-49250000D03*
%TO.P,J1,B8,SBU2*%
%TO.N,unconnected-(J1-SBU2-PadB8)*%
X28780000Y-48250000D03*
D14*
%TO.P,J1,B9,VBUS*%
%TO.N,VBUS*%
X28780000Y-47600000D03*
%TO.P,J1,B12,GND*%
%TO.N,GND*%
X28780000Y-46800000D03*
D16*
%TO.P,J1,S1,SHIELD*%
%TO.N,unconnected-(J1-SHIELD-PadS1)_2*%
X28205000Y-45680000D03*
D17*
%TO.N,unconnected-(J1-SHIELD-PadS1)_1*%
X24025000Y-45680000D03*
D16*
%TO.N,unconnected-(J1-SHIELD-PadS1)_0*%
X28205000Y-54320000D03*
D17*
%TO.N,unconnected-(J1-SHIELD-PadS1)*%
X24025000Y-54320000D03*
%TD*%
D18*
%TO.P,C3,1*%
%TO.N,VBUS*%
X30900000Y-53020000D03*
%TO.P,C3,2*%
%TO.N,GND*%
X30900000Y-53980000D03*
%TD*%
D19*
%TO.P,C4,1*%
%TO.N,+3.3V*%
X34780000Y-51700000D03*
%TO.P,C4,2*%
%TO.N,GND*%
X33820000Y-51700000D03*
%TD*%
D20*
%TO.P,C1,1*%
%TO.N,+3.3V*%
X44400000Y-47880000D03*
%TO.P,C1,2*%
%TO.N,GND*%
X44400000Y-46920000D03*
%TD*%
D21*
%TO.P,D1,1,K*%
%TO.N,GND*%
X34900000Y-44912500D03*
%TO.P,D1,2,A*%
%TO.N,Net-(D1-A)*%
X34900000Y-46487500D03*
%TD*%
D22*
%TO.P,U3,1,IN*%
%TO.N,VBUS*%
X32462500Y-53050000D03*
%TO.P,U3,2,GND*%
%TO.N,GND*%
X32462500Y-54000000D03*
%TO.P,U3,3,STBY*%
%TO.N,VBUS*%
X32462500Y-54950000D03*
%TO.P,U3,4,NC*%
%TO.N,unconnected-(U3-NC-Pad4)*%
X34737500Y-54950000D03*
%TO.P,U3,5,OUT*%
%TO.N,+3.3V*%
X34737500Y-53050000D03*
%TD*%
D23*
%TO.P,R6,1*%
%TO.N,Net-(D2-A)*%
X36700000Y-47975000D03*
%TO.P,R6,2*%
%TO.N,/ST_LED*%
X36700000Y-49625000D03*
%TD*%
D24*
%TO.P,R4,1*%
%TO.N,/MIDI_TX*%
X38087500Y-52000000D03*
%TO.P,R4,2*%
%TO.N,/SINK*%
X39912500Y-52000000D03*
%TD*%
D25*
%TO.P,J2,R*%
%TO.N,/JACK_R*%
X56600000Y-53700000D03*
%TO.P,J2,S*%
%TO.N,GND*%
X58600000Y-46300000D03*
D26*
%TO.P,J2,T*%
%TO.N,/JACK_T*%
X49200000Y-46300000D03*
%TD*%
D27*
%TO.P,C7,1*%
%TO.N,VBUS*%
X31225000Y-46500000D03*
%TO.P,C7,2*%
%TO.N,GND*%
X32775000Y-46500000D03*
%TD*%
D21*
%TO.P,D2,1,K*%
%TO.N,GND*%
X36700000Y-44912500D03*
%TO.P,D2,2,A*%
%TO.N,Net-(D2-A)*%
X36700000Y-46487500D03*
%TD*%
D28*
%TO.P,C5,1*%
%TO.N,/NRST*%
X44420000Y-45900000D03*
%TO.P,C5,2*%
%TO.N,GND*%
X45380000Y-45900000D03*
%TD*%
D11*
%TO.P,JP2,1,A*%
%TO.N,/SOURCE*%
X41700000Y-54500000D03*
D12*
%TO.P,JP2,2,C*%
%TO.N,/JACK_R*%
X43000000Y-54500000D03*
D13*
%TO.P,JP2,3,B*%
%TO.N,/SINK*%
X44300000Y-54500000D03*
%TD*%
D29*
%TO.P,U1,1,PB9*%
%TO.N,unconnected-(U1-PB9-Pad1)*%
X43137500Y-49150000D03*
%TO.P,U1,2,PC14*%
%TO.N,unconnected-(U1-PC14-Pad2)*%
X43137500Y-48650000D03*
%TO.P,U1,3,PC15*%
%TO.N,unconnected-(U1-PC15-Pad3)*%
X43137500Y-48150000D03*
%TO.P,U1,4,VDD*%
%TO.N,+3.3V*%
X43137500Y-47650000D03*
%TO.P,U1,5,VSS*%
%TO.N,GND*%
X43137500Y-47150000D03*
%TO.P,U1,6,PF2*%
%TO.N,/NRST*%
X43137500Y-46650000D03*
%TO.P,U1,7,PA0*%
%TO.N,unconnected-(U1-PA0-Pad7)*%
X43137500Y-46150000D03*
%TO.P,U1,8,PA1*%
%TO.N,unconnected-(U1-PA1-Pad8)*%
X43137500Y-45650000D03*
D30*
%TO.P,U1,9,PA2*%
%TO.N,unconnected-(U1-PA2-Pad9)*%
X42450000Y-44962500D03*
%TO.P,U1,10,PA3*%
%TO.N,unconnected-(U1-PA3-Pad10)*%
X41950000Y-44962500D03*
%TO.P,U1,11,PA4*%
%TO.N,unconnected-(U1-PA4-Pad11)*%
X41450000Y-44962500D03*
%TO.P,U1,12,PA5*%
%TO.N,unconnected-(U1-PA5-Pad12)*%
X40950000Y-44962500D03*
%TO.P,U1,13,PA6*%
%TO.N,unconnected-(U1-PA6-Pad13)*%
X40450000Y-44962500D03*
%TO.P,U1,14,PA7*%
%TO.N,unconnected-(U1-PA7-Pad14)*%
X39950000Y-44962500D03*
%TO.P,U1,15,PB0*%
%TO.N,unconnected-(U1-PB0-Pad15)*%
X39450000Y-44962500D03*
%TO.P,U1,16,PB1*%
%TO.N,unconnected-(U1-PB1-Pad16)*%
X38950000Y-44962500D03*
D29*
%TO.P,U1,17,PB2*%
%TO.N,unconnected-(U1-PB2-Pad17)*%
X38262500Y-45650000D03*
%TO.P,U1,18,PA8*%
%TO.N,unconnected-(U1-PA8-Pad18)*%
X38262500Y-46150000D03*
%TO.P,U1,19,PA9/UCPD1_DBCC1*%
%TO.N,unconnected-(U1-PA9{slash}UCPD1_DBCC1-Pad19)*%
X38262500Y-46650000D03*
%TO.P,U1,20,PC6*%
%TO.N,unconnected-(U1-PC6-Pad20)*%
X38262500Y-47150000D03*
%TO.P,U1,21,PA10/UCPD1_DBCC2*%
%TO.N,unconnected-(U1-PA10{slash}UCPD1_DBCC2-Pad21)*%
X38262500Y-47650000D03*
%TO.P,U1,22,PA11/PA9*%
%TO.N,/USB_DM*%
X38262500Y-48150000D03*
%TO.P,U1,23,PA12/PA10*%
%TO.N,/USB_DP*%
X38262500Y-48650000D03*
%TO.P,U1,24,PA13*%
%TO.N,/SWDIO*%
X38262500Y-49150000D03*
D30*
%TO.P,U1,25,PA14*%
%TO.N,/SWCLK*%
X38950000Y-49837500D03*
%TO.P,U1,26,PA15*%
%TO.N,/ST_LED*%
X39450000Y-49837500D03*
%TO.P,U1,27,PB3*%
%TO.N,/UART_TX*%
X39950000Y-49837500D03*
%TO.P,U1,28,PB4*%
%TO.N,/UART_RX*%
X40450000Y-49837500D03*
%TO.P,U1,29,PB5*%
%TO.N,unconnected-(U1-PB5-Pad29)*%
X40950000Y-49837500D03*
%TO.P,U1,30,PB6*%
%TO.N,/MIDI_TX*%
X41450000Y-49837500D03*
%TO.P,U1,31,PB7*%
%TO.N,unconnected-(U1-PB7-Pad31)*%
X41950000Y-49837500D03*
%TO.P,U1,32,PB8*%
%TO.N,unconnected-(U1-PB8-Pad32)*%
X42450000Y-49837500D03*
D31*
%TO.P,U1,33,VSS*%
%TO.N,GND*%
X40700000Y-47400000D03*
%TD*%
D32*
%TO.P,U2,1,I/O1*%
%TO.N,/USB_DP*%
X33137500Y-50350000D03*
%TO.P,U2,2,GND*%
%TO.N,GND*%
X33137500Y-49400000D03*
%TO.P,U2,3,I/O2*%
%TO.N,/USB_DM*%
X33137500Y-48450000D03*
%TO.P,U2,4,I/O2*%
%TO.N,/D-*%
X30862500Y-48450000D03*
%TO.P,U2,5,VBUS*%
%TO.N,VBUS*%
X30862500Y-49400000D03*
%TO.P,U2,6,I/O1*%
%TO.N,/D+*%
X30862500Y-50350000D03*
%TD*%
D23*
%TO.P,R5,1*%
%TO.N,Net-(D1-A)*%
X34900000Y-47975000D03*
%TO.P,R5,2*%
%TO.N,+3.3V*%
X34900000Y-49625000D03*
%TD*%
D33*
%TO.P,R2,1*%
%TO.N,/CC2*%
X30890000Y-51700000D03*
%TO.P,R2,2*%
%TO.N,GND*%
X31910000Y-51700000D03*
%TD*%
%TO.P,R1,1*%
%TO.N,/CC1*%
X30590000Y-44800000D03*
%TO.P,R1,2*%
%TO.N,GND*%
X31610000Y-44800000D03*
%TD*%
D24*
%TO.P,R3,1*%
%TO.N,+3.3V*%
X38087500Y-54500000D03*
%TO.P,R3,2*%
%TO.N,/SOURCE*%
X39912500Y-54500000D03*
%TD*%
D34*
%TO.N,+3.3V*%
X44345000Y-48435000D03*
X34780000Y-50800000D03*
%TO.N,GND*%
X30000000Y-46760000D03*
X46100000Y-50600000D03*
X40125000Y-46825000D03*
X34900000Y-45580000D03*
X35060000Y-54000000D03*
X31550000Y-54000000D03*
X40690000Y-55640000D03*
X41275000Y-47975000D03*
X33310000Y-51700000D03*
X32110000Y-44810000D03*
X60360000Y-49920000D03*
X45865000Y-45900000D03*
X52560000Y-52850000D03*
X24000000Y-50030000D03*
X49810000Y-54630000D03*
X53430000Y-54600000D03*
X30000000Y-53250000D03*
X48860000Y-52810000D03*
X32200000Y-49400000D03*
X45000000Y-46920000D03*
X25810000Y-47210000D03*
X57250000Y-46300000D03*
X33500000Y-46500000D03*
X36700000Y-45580000D03*
X46140000Y-54610000D03*
X32410000Y-51710000D03*
X41275000Y-46825000D03*
X52730000Y-46360000D03*
X36450000Y-52520000D03*
X45200000Y-49010000D03*
X59853208Y-54165643D03*
X52779110Y-50377557D03*
X25990000Y-52080000D03*
X41020000Y-53250000D03*
X40125000Y-47975000D03*
X55770000Y-49450000D03*
X30900000Y-54500000D03*
X45950000Y-52700000D03*
%TO.N,/NRST*%
X43860000Y-46470000D03*
%TO.N,/SWDIO*%
X37610000Y-49390000D03*
%TO.N,/SWCLK*%
X38420000Y-50130000D03*
%TO.N,/UART_TX*%
X39950000Y-50500000D03*
%TO.N,/UART_RX*%
X40700000Y-50550000D03*
%TO.N,VBUS*%
X29900000Y-49400000D03*
X30000000Y-52450000D03*
X30000000Y-47500000D03*
%TO.N,/SINK*%
X40950000Y-52000000D03*
X45050000Y-54500000D03*
%TO.N,/SOURCE*%
X40950000Y-54500000D03*
X45050000Y-52000000D03*
%TD*%
D35*
%TO.N,/SWCLK*%
X38420000Y-50130000D02*
X38712500Y-49837500D01*
X38712500Y-49837500D02*
X38950000Y-49837500D01*
D36*
%TO.N,/CC1*%
X29045000Y-48750000D02*
X27350000Y-48750000D01*
X26800000Y-48200000D02*
X26800000Y-45400000D01*
X27350000Y-48750000D02*
X26800000Y-48200000D01*
X26800000Y-45400000D02*
X27400000Y-44800000D01*
X27400000Y-44800000D02*
X30200000Y-44800000D01*
X30200000Y-44800000D02*
X30300000Y-44800000D01*
X30200000Y-44800000D02*
X30590000Y-44800000D01*
%TO.N,/USB_DM*%
X38262500Y-48150000D02*
X37650000Y-48150000D01*
X37650000Y-48150000D02*
X37200000Y-48600000D01*
X37200000Y-48600000D02*
X34400000Y-48600000D01*
X34400000Y-48600000D02*
X34250000Y-48450000D01*
X34250000Y-48450000D02*
X33137500Y-48450000D01*
%TO.N,/USB_DP*%
X38262500Y-48650000D02*
X37750000Y-48650000D01*
X37750000Y-48650000D02*
X37400000Y-49000000D01*
X37400000Y-49000000D02*
X34400000Y-49000000D01*
X34400000Y-49000000D02*
X34100000Y-49300000D01*
X34100000Y-49300000D02*
X34100000Y-50200000D01*
X34100000Y-50200000D02*
X33950000Y-50350000D01*
X33950000Y-50350000D02*
X33137500Y-50350000D01*
%TO.N,GND*%
X43137500Y-47150000D02*
X40950000Y-47150000D01*
X40950000Y-47150000D02*
X40700000Y-47400000D01*
D37*
%TO.N,+3.3V*%
X34737500Y-53050000D02*
X35750000Y-53050000D01*
D36*
X43720000Y-47650000D02*
X43950000Y-47880000D01*
X43137500Y-47650000D02*
X43720000Y-47650000D01*
D37*
X44400000Y-48380000D02*
X44400000Y-47880000D01*
X34780000Y-51700000D02*
X34780000Y-52590000D01*
X34780000Y-49745000D02*
X34900000Y-49625000D01*
X44345000Y-48435000D02*
X44400000Y-48380000D01*
X34737500Y-51742500D02*
X34780000Y-51700000D01*
X34780000Y-51700000D02*
X34780000Y-49745000D01*
X35750000Y-53050000D02*
X37200000Y-54500000D01*
D36*
X43950000Y-47880000D02*
X44400000Y-47880000D01*
D37*
X34780000Y-52590000D02*
X34780000Y-53007500D01*
X37200000Y-54500000D02*
X38087500Y-54500000D01*
X34780000Y-53007500D02*
X34737500Y-53050000D01*
%TO.N,GND*%
X32110000Y-44810000D02*
X32100000Y-44800000D01*
D36*
X44170000Y-47150000D02*
X44400000Y-46920000D01*
D37*
X45825000Y-45900000D02*
X45380000Y-45900000D01*
X30000000Y-46760000D02*
X29990000Y-46750000D01*
D36*
X43137500Y-47150000D02*
X44170000Y-47150000D01*
D37*
X32100000Y-44800000D02*
X31610000Y-44800000D01*
X32400000Y-51700000D02*
X31910000Y-51700000D01*
X57325000Y-46300000D02*
X58600000Y-46300000D01*
X30000000Y-53250000D02*
X29045000Y-53250000D01*
X33310000Y-51700000D02*
X33820000Y-51700000D01*
X29990000Y-46750000D02*
X29045000Y-46750000D01*
X32410000Y-51710000D02*
X32400000Y-51700000D01*
X30900000Y-54450000D02*
X30900000Y-53980000D01*
X33500000Y-46500000D02*
X32775000Y-46500000D01*
X31620000Y-54000000D02*
X32462500Y-54000000D01*
X45000000Y-46920000D02*
X44400000Y-46920000D01*
X36700000Y-45580000D02*
X36700000Y-44912500D01*
X33137500Y-49400000D02*
X32200000Y-49400000D01*
X34900000Y-45580000D02*
X34900000Y-44912500D01*
D36*
%TO.N,/NRST*%
X43750000Y-46650000D02*
X43900000Y-46500000D01*
X43900000Y-46000000D02*
X44000000Y-45900000D01*
X43137500Y-46650000D02*
X43740000Y-46660000D01*
X43900000Y-46500000D02*
X43900000Y-46000000D01*
X44000000Y-45900000D02*
X44420000Y-45900000D01*
X43740000Y-46660000D02*
X43750000Y-46650000D01*
D35*
%TO.N,/SWDIO*%
X37850000Y-49150000D02*
X38262500Y-49150000D01*
X37610000Y-49390000D02*
X37850000Y-49150000D01*
%TO.N,/UART_TX*%
X39950000Y-50450000D02*
X39950000Y-49837500D01*
%TO.N,/UART_RX*%
X40450000Y-50300000D02*
X40450000Y-49837500D01*
X40700000Y-50550000D02*
X40450000Y-50300000D01*
D36*
%TO.N,/MIDI_TX*%
X41450000Y-49837500D02*
X41450000Y-50570000D01*
X41450000Y-50570000D02*
X41020000Y-51000000D01*
X41020000Y-51000000D02*
X38330000Y-51000000D01*
X38087500Y-51242500D02*
X38087500Y-52000000D01*
X38330000Y-51000000D02*
X38087500Y-51242500D01*
D37*
%TO.N,VBUS*%
X30690000Y-52450000D02*
X30900000Y-52660000D01*
X30000000Y-52450000D02*
X29045000Y-52450000D01*
X31225000Y-47175000D02*
X30900000Y-47500000D01*
D35*
X33600000Y-54600000D02*
X33250000Y-54950000D01*
X33600000Y-53400000D02*
X33600000Y-54600000D01*
D37*
X30000000Y-52450000D02*
X30690000Y-52450000D01*
X29900000Y-49400000D02*
X30862500Y-49400000D01*
X30000000Y-47500000D02*
X29950000Y-47550000D01*
D35*
X33250000Y-54950000D02*
X32462500Y-54950000D01*
D37*
X30900000Y-47500000D02*
X30000000Y-47500000D01*
X32462500Y-53050000D02*
X30930000Y-53050000D01*
D35*
X33250000Y-53050000D02*
X33600000Y-53400000D01*
D37*
X30930000Y-53050000D02*
X30900000Y-53020000D01*
X29950000Y-47550000D02*
X29045000Y-47550000D01*
X30900000Y-52660000D02*
X30900000Y-53020000D01*
X31225000Y-46500000D02*
X31225000Y-47175000D01*
D35*
X32462500Y-53050000D02*
X33250000Y-53050000D01*
D36*
%TO.N,/D+*%
X29550000Y-49750000D02*
X29700000Y-49900000D01*
X30862500Y-50350000D02*
X29750000Y-50350000D01*
X29700000Y-50600000D02*
X29550000Y-50750000D01*
X29700000Y-50400000D02*
X29700000Y-50600000D01*
X29550000Y-50750000D02*
X28780000Y-50750000D01*
X28780000Y-49750000D02*
X29550000Y-49750000D01*
X29750000Y-50350000D02*
X29700000Y-50400000D01*
X29700000Y-49900000D02*
X29700000Y-50400000D01*
%TO.N,/D-*%
X27900000Y-50100000D02*
X28050000Y-50250000D01*
X30150000Y-48450000D02*
X30862500Y-48450000D01*
X28050000Y-49250000D02*
X27900000Y-49400000D01*
X28780000Y-49250000D02*
X29350000Y-49250000D01*
X29350000Y-49250000D02*
X30150000Y-48450000D01*
X28050000Y-50250000D02*
X28780000Y-50250000D01*
X27900000Y-49400000D02*
X27900000Y-50100000D01*
X28780000Y-49250000D02*
X28050000Y-49250000D01*
%TO.N,/CC2*%
X29045000Y-51750000D02*
X30840000Y-51750000D01*
X30840000Y-51750000D02*
X30890000Y-51700000D01*
D37*
%TO.N,/JACK_R*%
X45470000Y-53420000D02*
X45750000Y-53700000D01*
X43230000Y-53420000D02*
X45470000Y-53420000D01*
X43000000Y-54500000D02*
X43000000Y-53650000D01*
X43000000Y-53650000D02*
X43230000Y-53420000D01*
X45750000Y-53700000D02*
X56600000Y-53700000D01*
%TO.N,/JACK_T*%
X47900000Y-49800000D02*
X49200000Y-48500000D01*
X44300000Y-49800000D02*
X47900000Y-49800000D01*
X43000000Y-51100000D02*
X44300000Y-49800000D01*
X43000000Y-52000000D02*
X43000000Y-51100000D01*
X49200000Y-48500000D02*
X49200000Y-46300000D01*
%TO.N,/SINK*%
X44980000Y-54500000D02*
X44300000Y-54500000D01*
X41700000Y-52000000D02*
X41030000Y-52000000D01*
X41030000Y-52000000D02*
X39912500Y-52000000D01*
%TO.N,/SOURCE*%
X41020000Y-54500000D02*
X39912500Y-54500000D01*
X44300000Y-52000000D02*
X44990000Y-52000000D01*
X41700000Y-54500000D02*
X41020000Y-54500000D01*
D36*
%TO.N,/ST_LED*%
X39450000Y-50370000D02*
X39220000Y-50600000D01*
X39450000Y-49837500D02*
X39450000Y-50370000D01*
X36700000Y-50210000D02*
X36700000Y-49625000D01*
X39220000Y-50600000D02*
X37090000Y-50600000D01*
X37090000Y-50600000D02*
X36700000Y-50210000D01*
D37*
%TO.N,Net-(D1-A)*%
X34900000Y-46487500D02*
X34900000Y-47975000D01*
%TO.N,Net-(D2-A)*%
X36700000Y-46487500D02*
X36700000Y-47975000D01*
%TD*%
M02*
