M48
; DRILL file {KiCad 8.0.1-8.0.1-1~ubuntu22.04.1} date 2024-03-29T08:39:13+0100
; FORMAT={-:-/ absolute / inch / decimal}
; #@! TF.CreationDate,2024-03-29T08:39:13+01:00
; #@! TF.GenerationSoftware,Kicad,Pcbnew,8.0.1-8.0.1-1~ubuntu22.04.1
; #@! TF.FileFunction,Plated,1,4,PTH
FMAT,2
INCH
; #@! TA.AperFunction,Plated,PTH,ViaDrill
T1C0.0118
; #@! TA.AperFunction,Plated,PTH,ComponentDrill
T2C0.0236
%
G90
G05
T1
X0.9449Y-1.9697
X1.0161Y-1.8587
X1.0232Y-2.0504
X1.1772Y-1.9449
X1.1811Y-1.8409
X1.1811Y-1.8701
X1.1811Y-2.065
X1.1811Y-2.0965
X1.2165Y-2.1457
X1.2421Y-2.126
X1.2642Y-1.7642
X1.2677Y-1.9449
X1.276Y-2.0358
X1.3114Y-2.0354
X1.3189Y-1.8307
X1.3693Y-2.0
X1.374Y-1.7945
X1.3803Y-2.126
X1.435Y-2.0677
X1.4449Y-1.7945
X1.4807Y-1.9445
X1.5126Y-1.9736
X1.5728Y-1.9882
X1.5797Y-1.8435
X1.5797Y-1.8888
X1.602Y-2.1906
X1.6024Y-1.9902
X1.6122Y-2.0472
X1.6122Y-2.1457
X1.615Y-2.0965
X1.625Y-1.8435
X1.625Y-1.8888
X1.7268Y-1.8295
X1.7459Y-1.9069
X1.7717Y-1.8472
X1.7736Y-2.0472
X1.7736Y-2.1457
X1.7795Y-1.9295
X1.8057Y-1.8071
X1.8091Y-2.0748
X1.815Y-1.9921
X1.8165Y-2.15
X1.9236Y-2.0791
X1.961Y-2.1508
X2.0693Y-2.0807
X2.076Y-1.8252
X2.0779Y-1.9834
X2.1035Y-2.1496
X2.1957Y-1.9469
X2.2539Y-1.8228
X2.3564Y-2.1325
X2.3764Y-1.9654
T2
G00X0.9616Y-1.7984
M15
G01X0.9301Y-1.7984
M16
G05
G00X0.9616Y-2.1386
M15
G01X0.9301Y-2.1386
M16
G05
G00X1.1321Y-1.7984
M15
G01X1.0888Y-1.7984
M16
G05
G00X1.1321Y-2.1386
M15
G01X1.0888Y-2.1386
M16
G05
M30
