%TF.GenerationSoftware,KiCad,Pcbnew,8.0.0*%
%TF.CreationDate,2024-02-29T11:48:50+01:00*%
%TF.ProjectId,usb2mid,75736232-6d69-4642-9e6b-696361645f70,rev?*%
%TF.SameCoordinates,Original*%
%TF.FileFunction,Legend,Top*%
%TF.FilePolarity,Positive*%
%FSLAX46Y46*%
G04 Gerber Fmt 4.6, Leading zero omitted, Abs format (unit mm)*
G04 Created by KiCad (PCBNEW 8.0.0) date 2024-02-29 11:48:50*
%MOMM*%
%LPD*%
G01*
G04 APERTURE LIST*
%ADD10C,0.150000*%
%ADD11C,0.120000*%
G04 APERTURE END LIST*
D10*
X50380951Y-51054819D02*
X50380951Y-51769104D01*
X50380951Y-51769104D02*
X50333332Y-51911961D01*
X50333332Y-51911961D02*
X50238094Y-52007200D01*
X50238094Y-52007200D02*
X50095237Y-52054819D01*
X50095237Y-52054819D02*
X49999999Y-52054819D01*
X51333332Y-52054819D02*
X50857142Y-52054819D01*
X50857142Y-52054819D02*
X50857142Y-51054819D01*
X52238094Y-51959580D02*
X52190475Y-52007200D01*
X52190475Y-52007200D02*
X52047618Y-52054819D01*
X52047618Y-52054819D02*
X51952380Y-52054819D01*
X51952380Y-52054819D02*
X51809523Y-52007200D01*
X51809523Y-52007200D02*
X51714285Y-51911961D01*
X51714285Y-51911961D02*
X51666666Y-51816723D01*
X51666666Y-51816723D02*
X51619047Y-51626247D01*
X51619047Y-51626247D02*
X51619047Y-51483390D01*
X51619047Y-51483390D02*
X51666666Y-51292914D01*
X51666666Y-51292914D02*
X51714285Y-51197676D01*
X51714285Y-51197676D02*
X51809523Y-51102438D01*
X51809523Y-51102438D02*
X51952380Y-51054819D01*
X51952380Y-51054819D02*
X52047618Y-51054819D01*
X52047618Y-51054819D02*
X52190475Y-51102438D01*
X52190475Y-51102438D02*
X52238094Y-51150057D01*
X52952380Y-51054819D02*
X52952380Y-51769104D01*
X52952380Y-51769104D02*
X52904761Y-51911961D01*
X52904761Y-51911961D02*
X52809523Y-52007200D01*
X52809523Y-52007200D02*
X52666666Y-52054819D01*
X52666666Y-52054819D02*
X52571428Y-52054819D01*
X53904761Y-52054819D02*
X53428571Y-52054819D01*
X53428571Y-52054819D02*
X53428571Y-51054819D01*
X54809523Y-51959580D02*
X54761904Y-52007200D01*
X54761904Y-52007200D02*
X54619047Y-52054819D01*
X54619047Y-52054819D02*
X54523809Y-52054819D01*
X54523809Y-52054819D02*
X54380952Y-52007200D01*
X54380952Y-52007200D02*
X54285714Y-51911961D01*
X54285714Y-51911961D02*
X54238095Y-51816723D01*
X54238095Y-51816723D02*
X54190476Y-51626247D01*
X54190476Y-51626247D02*
X54190476Y-51483390D01*
X54190476Y-51483390D02*
X54238095Y-51292914D01*
X54238095Y-51292914D02*
X54285714Y-51197676D01*
X54285714Y-51197676D02*
X54380952Y-51102438D01*
X54380952Y-51102438D02*
X54523809Y-51054819D01*
X54523809Y-51054819D02*
X54619047Y-51054819D01*
X54619047Y-51054819D02*
X54761904Y-51102438D01*
X54761904Y-51102438D02*
X54809523Y-51150057D01*
X55523809Y-51054819D02*
X55523809Y-51769104D01*
X55523809Y-51769104D02*
X55476190Y-51911961D01*
X55476190Y-51911961D02*
X55380952Y-52007200D01*
X55380952Y-52007200D02*
X55238095Y-52054819D01*
X55238095Y-52054819D02*
X55142857Y-52054819D01*
X56476190Y-52054819D02*
X56000000Y-52054819D01*
X56000000Y-52054819D02*
X56000000Y-51054819D01*
X57380952Y-51959580D02*
X57333333Y-52007200D01*
X57333333Y-52007200D02*
X57190476Y-52054819D01*
X57190476Y-52054819D02*
X57095238Y-52054819D01*
X57095238Y-52054819D02*
X56952381Y-52007200D01*
X56952381Y-52007200D02*
X56857143Y-51911961D01*
X56857143Y-51911961D02*
X56809524Y-51816723D01*
X56809524Y-51816723D02*
X56761905Y-51626247D01*
X56761905Y-51626247D02*
X56761905Y-51483390D01*
X56761905Y-51483390D02*
X56809524Y-51292914D01*
X56809524Y-51292914D02*
X56857143Y-51197676D01*
X56857143Y-51197676D02*
X56952381Y-51102438D01*
X56952381Y-51102438D02*
X57095238Y-51054819D01*
X57095238Y-51054819D02*
X57190476Y-51054819D01*
X57190476Y-51054819D02*
X57333333Y-51102438D01*
X57333333Y-51102438D02*
X57380952Y-51150057D01*
X58095238Y-51054819D02*
X58095238Y-51769104D01*
X58095238Y-51769104D02*
X58047619Y-51911961D01*
X58047619Y-51911961D02*
X57952381Y-52007200D01*
X57952381Y-52007200D02*
X57809524Y-52054819D01*
X57809524Y-52054819D02*
X57714286Y-52054819D01*
X59047619Y-52054819D02*
X58571429Y-52054819D01*
X58571429Y-52054819D02*
X58571429Y-51054819D01*
X59952381Y-51959580D02*
X59904762Y-52007200D01*
X59904762Y-52007200D02*
X59761905Y-52054819D01*
X59761905Y-52054819D02*
X59666667Y-52054819D01*
X59666667Y-52054819D02*
X59523810Y-52007200D01*
X59523810Y-52007200D02*
X59428572Y-51911961D01*
X59428572Y-51911961D02*
X59380953Y-51816723D01*
X59380953Y-51816723D02*
X59333334Y-51626247D01*
X59333334Y-51626247D02*
X59333334Y-51483390D01*
X59333334Y-51483390D02*
X59380953Y-51292914D01*
X59380953Y-51292914D02*
X59428572Y-51197676D01*
X59428572Y-51197676D02*
X59523810Y-51102438D01*
X59523810Y-51102438D02*
X59666667Y-51054819D01*
X59666667Y-51054819D02*
X59761905Y-51054819D01*
X59761905Y-51054819D02*
X59904762Y-51102438D01*
X59904762Y-51102438D02*
X59952381Y-51150057D01*
D11*
%TO.C,JP1*%
X40950000Y-52300000D02*
X40950000Y-51700000D01*
X41500000Y-53500000D02*
X42100000Y-53500000D01*
X41600000Y-51000000D02*
X44400000Y-51000000D01*
X41800000Y-53200000D02*
X41500000Y-53500000D01*
X41800000Y-53200000D02*
X42100000Y-53500000D01*
X44400000Y-53000000D02*
X41600000Y-53000000D01*
X45050000Y-51700000D02*
X45050000Y-52300000D01*
X40950000Y-51700000D02*
G75*
G02*
X41650000Y-51000000I699999J1D01*
G01*
X41650000Y-53000000D02*
G75*
G02*
X40950000Y-52300000I-1J699999D01*
G01*
X44350000Y-51000000D02*
G75*
G02*
X45050000Y-51700000I0J-700000D01*
G01*
X45050000Y-52300000D02*
G75*
G02*
X44350000Y-53000000I-700000J0D01*
G01*
%TO.C,J1*%
X26900000Y-45300000D02*
X24900000Y-45300000D01*
X23000000Y-45300000D02*
X21100000Y-45300000D01*
X21100000Y-45300000D02*
X21100000Y-54700000D01*
X26900000Y-54700000D02*
X24900000Y-54700000D01*
X23000000Y-54700000D02*
X21100000Y-54700000D01*
%TO.C,C3*%
X31260000Y-53392164D02*
X31260000Y-53607836D01*
X30540000Y-53392164D02*
X30540000Y-53607836D01*
%TO.C,C4*%
X34407836Y-52060000D02*
X34192164Y-52060000D01*
X34407836Y-51340000D02*
X34192164Y-51340000D01*
%TO.C,C1*%
X44040000Y-47507836D02*
X44040000Y-47292164D01*
X44760000Y-47507836D02*
X44760000Y-47292164D01*
%TO.C,D1*%
X35635000Y-44215000D02*
X34165000Y-44215000D01*
X34165000Y-44215000D02*
X34165000Y-46500000D01*
X35635000Y-46500000D02*
X35635000Y-44215000D01*
%TO.C,U3*%
X33600000Y-52440000D02*
X31800000Y-52440000D01*
X33600000Y-52440000D02*
X34400000Y-52440000D01*
X33600000Y-55560000D02*
X32800000Y-55560000D01*
X33600000Y-55560000D02*
X34400000Y-55560000D01*
%TO.C,R6*%
X37222500Y-48562742D02*
X37222500Y-49037258D01*
X36177500Y-48562742D02*
X36177500Y-49037258D01*
%TO.C,R4*%
X38772936Y-51265000D02*
X39227064Y-51265000D01*
X38772936Y-52735000D02*
X39227064Y-52735000D01*
%TO.C,J2*%
X61100000Y-46900000D02*
X61100000Y-47400000D01*
X59900000Y-46900000D02*
X59900000Y-44900000D01*
X59900000Y-46900000D02*
X61100000Y-46900000D01*
X57300000Y-46900000D02*
X57300000Y-44900000D01*
X50800000Y-46900000D02*
X57300000Y-46900000D01*
X46400000Y-46900000D02*
X47600000Y-46900000D01*
X63600000Y-47400000D02*
X63600000Y-52600000D01*
X61100000Y-47400000D02*
X63600000Y-47400000D01*
X63600000Y-52600000D02*
X61100000Y-52600000D01*
X61100000Y-52600000D02*
X61100000Y-53100000D01*
X61100000Y-53100000D02*
X57900000Y-53100000D01*
X55300000Y-53100000D02*
X46400000Y-53100000D01*
X46400000Y-53100000D02*
X46400000Y-46900000D01*
%TO.C,D2*%
X37435000Y-44215000D02*
X35965000Y-44215000D01*
X35965000Y-44215000D02*
X35965000Y-46500000D01*
X37435000Y-46500000D02*
X37435000Y-44215000D01*
%TO.C,C5*%
X44792164Y-45540000D02*
X45007836Y-45540000D01*
X44792164Y-46260000D02*
X45007836Y-46260000D01*
%TO.C,JP2*%
X40950000Y-54800000D02*
X40950000Y-54200000D01*
X41500000Y-56000000D02*
X42100000Y-56000000D01*
X41600000Y-53500000D02*
X44400000Y-53500000D01*
X41800000Y-55700000D02*
X41500000Y-56000000D01*
X41800000Y-55700000D02*
X42100000Y-56000000D01*
X44400000Y-55500000D02*
X41600000Y-55500000D01*
X45050000Y-54200000D02*
X45050000Y-54800000D01*
X40950000Y-54200000D02*
G75*
G02*
X41650000Y-53500000I699999J1D01*
G01*
X41650000Y-55500000D02*
G75*
G02*
X40950000Y-54800000I-1J699999D01*
G01*
X44350000Y-53500000D02*
G75*
G02*
X45050000Y-54200000I0J-700000D01*
G01*
X45050000Y-54800000D02*
G75*
G02*
X44350000Y-55500000I-700000J0D01*
G01*
%TO.C,U1*%
X43310000Y-44790000D02*
X43310000Y-45265000D01*
X42835000Y-50010000D02*
X43310000Y-50010000D01*
X42835000Y-44790000D02*
X43310000Y-44790000D01*
X38565000Y-50010000D02*
X38090000Y-50010000D01*
X38565000Y-44790000D02*
X38090000Y-44790000D01*
X38090000Y-50010000D02*
X38090000Y-49535000D01*
X38090000Y-44790000D02*
X38090000Y-45265000D01*
%TO.C,U2*%
X30640000Y-49000000D02*
X30640000Y-50800000D01*
X30640000Y-49000000D02*
X30640000Y-48200000D01*
X33760000Y-49000000D02*
X33760000Y-49800000D01*
X33760000Y-49000000D02*
X33760000Y-48200000D01*
%TO.C,R5*%
X35422500Y-48562742D02*
X35422500Y-49037258D01*
X34377500Y-48562742D02*
X34377500Y-49037258D01*
%TO.C,R2*%
X31246359Y-51320000D02*
X31553641Y-51320000D01*
X31246359Y-52080000D02*
X31553641Y-52080000D01*
%TO.C,R1*%
X31346359Y-45620000D02*
X31653641Y-45620000D01*
X31346359Y-46380000D02*
X31653641Y-46380000D01*
%TO.C,C2*%
X45040000Y-47507836D02*
X45040000Y-47292164D01*
X45760000Y-47507836D02*
X45760000Y-47292164D01*
%TO.C,R3*%
X38772936Y-53765000D02*
X39227064Y-53765000D01*
X38772936Y-55235000D02*
X39227064Y-55235000D01*
%TD*%
M02*
