%TF.GenerationSoftware,KiCad,Pcbnew,8.0.1-8.0.1-1~ubuntu22.04.1*%
%TF.CreationDate,2024-03-29T08:39:18+01:00*%
%TF.ProjectId,usb2mid,75736232-6d69-4642-9e6b-696361645f70,rev?*%
%TF.SameCoordinates,Original*%
%TF.FileFunction,Copper,L3,Inr*%
%TF.FilePolarity,Positive*%
%FSLAX46Y46*%
G04 Gerber Fmt 4.6, Leading zero omitted, Abs format (unit mm)*
G04 Created by KiCad (PCBNEW 8.0.1-8.0.1-1~ubuntu22.04.1) date 2024-03-29 08:39:18*
%MOMM*%
%LPD*%
G01*
G04 APERTURE LIST*
%TA.AperFunction,ComponentPad*%
%ADD10O,2.100000X1.000000*%
%TD*%
%TA.AperFunction,ComponentPad*%
%ADD11O,1.800000X1.000000*%
%TD*%
%TA.AperFunction,ViaPad*%
%ADD12C,0.450000*%
%TD*%
G04 APERTURE END LIST*
D10*
%TO.N,unconnected-(J1-SHIELD-PadS1)_2*%
%TO.C,J1*%
X28205000Y-45680000D03*
D11*
%TO.N,unconnected-(J1-SHIELD-PadS1)_1*%
X24025000Y-45680000D03*
D10*
%TO.N,unconnected-(J1-SHIELD-PadS1)_0*%
X28205000Y-54320000D03*
D11*
%TO.N,unconnected-(J1-SHIELD-PadS1)*%
X24025000Y-54320000D03*
%TD*%
D12*
%TO.N,+3.3V*%
X44345000Y-48435000D03*
X34780000Y-50800000D03*
%TO.N,GND*%
X30000000Y-46760000D03*
X46100000Y-50600000D03*
X40125000Y-46825000D03*
X34900000Y-45580000D03*
X35060000Y-54000000D03*
X31550000Y-54000000D03*
X40690000Y-55640000D03*
X41275000Y-47975000D03*
X33310000Y-51700000D03*
X32110000Y-44810000D03*
X60360000Y-49920000D03*
X45865000Y-45900000D03*
X52560000Y-52850000D03*
X24000000Y-50030000D03*
X49810000Y-54630000D03*
X53430000Y-54600000D03*
X30000000Y-53250000D03*
X48860000Y-52810000D03*
X32200000Y-49400000D03*
X45000000Y-46920000D03*
X25810000Y-47210000D03*
X57250000Y-46300000D03*
X33500000Y-46500000D03*
X36700000Y-45580000D03*
X46140000Y-54610000D03*
X32410000Y-51710000D03*
X41275000Y-46825000D03*
X52730000Y-46360000D03*
X36450000Y-52520000D03*
X45200000Y-49010000D03*
X59853208Y-54165643D03*
X52779110Y-50377557D03*
X25990000Y-52080000D03*
X41020000Y-53250000D03*
X40125000Y-47975000D03*
X55770000Y-49450000D03*
X30900000Y-54500000D03*
X45950000Y-52700000D03*
%TO.N,/NRST*%
X43860000Y-46470000D03*
%TO.N,/SWDIO*%
X37610000Y-49390000D03*
%TO.N,/SWCLK*%
X38420000Y-50130000D03*
%TO.N,/UART_TX*%
X39950000Y-50500000D03*
%TO.N,/UART_RX*%
X40700000Y-50550000D03*
%TO.N,VBUS*%
X29900000Y-49400000D03*
X30000000Y-52450000D03*
X30000000Y-47500000D03*
%TO.N,/SINK*%
X40950000Y-52000000D03*
X45050000Y-54500000D03*
%TO.N,/SOURCE*%
X40950000Y-54500000D03*
X45050000Y-52000000D03*
%TD*%
%TA.AperFunction,Conductor*%
%TO.N,GND*%
G36*
X61005395Y-44080972D02*
G01*
X61148859Y-44093523D01*
X61170144Y-44097275D01*
X61304014Y-44133146D01*
X61324318Y-44140537D01*
X61449920Y-44199106D01*
X61468636Y-44209912D01*
X61582156Y-44289399D01*
X61598714Y-44303293D01*
X61696706Y-44401285D01*
X61710600Y-44417843D01*
X61790087Y-44531363D01*
X61800894Y-44550081D01*
X61859461Y-44675678D01*
X61866854Y-44695989D01*
X61902723Y-44829854D01*
X61906476Y-44851140D01*
X61919028Y-44994603D01*
X61919500Y-45005411D01*
X61919500Y-54994588D01*
X61919028Y-55005396D01*
X61906476Y-55148859D01*
X61902723Y-55170145D01*
X61866854Y-55304010D01*
X61859461Y-55324321D01*
X61800894Y-55449918D01*
X61790087Y-55468636D01*
X61710600Y-55582156D01*
X61696706Y-55598714D01*
X61598714Y-55696706D01*
X61582156Y-55710600D01*
X61468636Y-55790087D01*
X61449918Y-55800894D01*
X61324321Y-55859461D01*
X61304010Y-55866854D01*
X61170145Y-55902723D01*
X61148859Y-55906476D01*
X61019623Y-55917783D01*
X61005394Y-55919028D01*
X60994588Y-55919500D01*
X23005412Y-55919500D01*
X22994605Y-55919028D01*
X22978672Y-55917634D01*
X22851140Y-55906476D01*
X22829854Y-55902723D01*
X22695989Y-55866854D01*
X22675678Y-55859461D01*
X22550081Y-55800894D01*
X22531363Y-55790087D01*
X22417843Y-55710600D01*
X22401285Y-55696706D01*
X22303293Y-55598714D01*
X22289399Y-55582156D01*
X22209912Y-55468636D01*
X22199105Y-55449918D01*
X22140538Y-55324321D01*
X22133145Y-55304010D01*
X22097276Y-55170145D01*
X22093523Y-55148858D01*
X22080972Y-55005395D01*
X22080500Y-54994588D01*
X22080500Y-54388995D01*
X22924499Y-54388995D01*
X22951418Y-54524322D01*
X22951421Y-54524332D01*
X23004221Y-54651804D01*
X23004228Y-54651817D01*
X23080885Y-54766541D01*
X23080888Y-54766545D01*
X23178454Y-54864111D01*
X23178458Y-54864114D01*
X23293182Y-54940771D01*
X23293195Y-54940778D01*
X23420667Y-54993578D01*
X23420672Y-54993580D01*
X23420676Y-54993580D01*
X23420677Y-54993581D01*
X23556004Y-55020500D01*
X23556007Y-55020500D01*
X24493995Y-55020500D01*
X24585041Y-55002389D01*
X24629328Y-54993580D01*
X24756811Y-54940775D01*
X24871542Y-54864114D01*
X24969114Y-54766542D01*
X25045775Y-54651811D01*
X25098580Y-54524328D01*
X25125500Y-54388995D01*
X26954499Y-54388995D01*
X26981418Y-54524322D01*
X26981421Y-54524332D01*
X27034221Y-54651804D01*
X27034228Y-54651817D01*
X27110885Y-54766541D01*
X27110888Y-54766545D01*
X27208454Y-54864111D01*
X27208458Y-54864114D01*
X27323182Y-54940771D01*
X27323195Y-54940778D01*
X27450667Y-54993578D01*
X27450672Y-54993580D01*
X27450676Y-54993580D01*
X27450677Y-54993581D01*
X27586004Y-55020500D01*
X27586007Y-55020500D01*
X28823995Y-55020500D01*
X28915041Y-55002389D01*
X28959328Y-54993580D01*
X29086811Y-54940775D01*
X29201542Y-54864114D01*
X29299114Y-54766542D01*
X29375775Y-54651811D01*
X29428580Y-54524328D01*
X29433419Y-54500002D01*
X40519196Y-54500002D01*
X40540279Y-54633121D01*
X40540280Y-54633124D01*
X40540281Y-54633126D01*
X40549805Y-54651817D01*
X40601473Y-54753221D01*
X40601476Y-54753225D01*
X40696774Y-54848523D01*
X40696778Y-54848526D01*
X40696780Y-54848528D01*
X40816874Y-54909719D01*
X40816876Y-54909719D01*
X40816878Y-54909720D01*
X40949998Y-54930804D01*
X40950000Y-54930804D01*
X40950002Y-54930804D01*
X41083121Y-54909720D01*
X41083121Y-54909719D01*
X41083126Y-54909719D01*
X41203220Y-54848528D01*
X41298528Y-54753220D01*
X41359719Y-54633126D01*
X41359720Y-54633121D01*
X41380804Y-54500002D01*
X44619196Y-54500002D01*
X44640279Y-54633121D01*
X44640280Y-54633124D01*
X44640281Y-54633126D01*
X44649805Y-54651817D01*
X44701473Y-54753221D01*
X44701476Y-54753225D01*
X44796774Y-54848523D01*
X44796778Y-54848526D01*
X44796780Y-54848528D01*
X44916874Y-54909719D01*
X44916876Y-54909719D01*
X44916878Y-54909720D01*
X45049998Y-54930804D01*
X45050000Y-54930804D01*
X45050002Y-54930804D01*
X45183121Y-54909720D01*
X45183121Y-54909719D01*
X45183126Y-54909719D01*
X45303220Y-54848528D01*
X45398528Y-54753220D01*
X45459719Y-54633126D01*
X45459720Y-54633121D01*
X45480804Y-54500002D01*
X45480804Y-54499997D01*
X45459720Y-54366878D01*
X45459719Y-54366876D01*
X45459719Y-54366874D01*
X45398528Y-54246780D01*
X45398526Y-54246778D01*
X45398523Y-54246774D01*
X45303225Y-54151476D01*
X45303221Y-54151473D01*
X45303220Y-54151472D01*
X45183126Y-54090281D01*
X45183124Y-54090280D01*
X45183121Y-54090279D01*
X45050002Y-54069196D01*
X45049998Y-54069196D01*
X44916878Y-54090279D01*
X44796778Y-54151473D01*
X44796774Y-54151476D01*
X44701476Y-54246774D01*
X44701473Y-54246778D01*
X44640279Y-54366878D01*
X44619196Y-54499997D01*
X44619196Y-54500002D01*
X41380804Y-54500002D01*
X41380804Y-54499997D01*
X41359720Y-54366878D01*
X41359719Y-54366876D01*
X41359719Y-54366874D01*
X41298528Y-54246780D01*
X41298526Y-54246778D01*
X41298523Y-54246774D01*
X41203225Y-54151476D01*
X41203221Y-54151473D01*
X41203220Y-54151472D01*
X41083126Y-54090281D01*
X41083124Y-54090280D01*
X41083121Y-54090279D01*
X40950002Y-54069196D01*
X40949998Y-54069196D01*
X40816878Y-54090279D01*
X40696778Y-54151473D01*
X40696774Y-54151476D01*
X40601476Y-54246774D01*
X40601473Y-54246778D01*
X40540279Y-54366878D01*
X40519196Y-54499997D01*
X40519196Y-54500002D01*
X29433419Y-54500002D01*
X29455500Y-54388993D01*
X29455500Y-54251007D01*
X29455500Y-54251004D01*
X29428581Y-54115677D01*
X29428580Y-54115676D01*
X29428580Y-54115672D01*
X29409329Y-54069196D01*
X29375778Y-53988195D01*
X29375771Y-53988182D01*
X29299114Y-53873458D01*
X29299111Y-53873454D01*
X29201545Y-53775888D01*
X29201541Y-53775885D01*
X29086817Y-53699228D01*
X29086804Y-53699221D01*
X28959332Y-53646421D01*
X28959322Y-53646418D01*
X28823995Y-53619500D01*
X28823993Y-53619500D01*
X27819489Y-53619500D01*
X27752450Y-53599815D01*
X27706695Y-53547011D01*
X27705319Y-53537447D01*
X27704499Y-53544312D01*
X27660014Y-53598190D01*
X27593462Y-53619465D01*
X27590511Y-53619500D01*
X27586005Y-53619500D01*
X27450677Y-53646418D01*
X27450667Y-53646421D01*
X27323195Y-53699221D01*
X27323182Y-53699228D01*
X27208458Y-53775885D01*
X27208454Y-53775888D01*
X27110888Y-53873454D01*
X27110885Y-53873458D01*
X27034228Y-53988182D01*
X27034221Y-53988195D01*
X26981421Y-54115667D01*
X26981418Y-54115677D01*
X26954500Y-54251004D01*
X26954500Y-54251007D01*
X26954500Y-54388993D01*
X26954500Y-54388995D01*
X26954499Y-54388995D01*
X25125500Y-54388995D01*
X25125500Y-54388993D01*
X25125500Y-54251007D01*
X25125500Y-54251004D01*
X25098581Y-54115677D01*
X25098580Y-54115676D01*
X25098580Y-54115672D01*
X25079329Y-54069196D01*
X25045778Y-53988195D01*
X25045771Y-53988182D01*
X24969114Y-53873458D01*
X24969111Y-53873454D01*
X24871545Y-53775888D01*
X24871541Y-53775885D01*
X24756817Y-53699228D01*
X24756804Y-53699221D01*
X24629332Y-53646421D01*
X24629322Y-53646418D01*
X24493995Y-53619500D01*
X24493993Y-53619500D01*
X23556007Y-53619500D01*
X23556005Y-53619500D01*
X23420677Y-53646418D01*
X23420667Y-53646421D01*
X23293195Y-53699221D01*
X23293182Y-53699228D01*
X23178458Y-53775885D01*
X23178454Y-53775888D01*
X23080888Y-53873454D01*
X23080885Y-53873458D01*
X23004228Y-53988182D01*
X23004221Y-53988195D01*
X22951421Y-54115667D01*
X22951418Y-54115677D01*
X22924500Y-54251004D01*
X22924500Y-54251007D01*
X22924500Y-54388993D01*
X22924500Y-54388995D01*
X22924499Y-54388995D01*
X22080500Y-54388995D01*
X22080500Y-52954575D01*
X27214500Y-52954575D01*
X27247926Y-53079327D01*
X27280214Y-53135250D01*
X27312502Y-53191174D01*
X27403826Y-53282498D01*
X27515674Y-53347074D01*
X27622604Y-53375725D01*
X27682265Y-53412090D01*
X27705211Y-53459327D01*
X27725776Y-53414297D01*
X27784554Y-53376523D01*
X27787377Y-53375730D01*
X27894326Y-53347074D01*
X28006174Y-53282498D01*
X28097498Y-53191174D01*
X28162074Y-53079326D01*
X28195500Y-52954576D01*
X28195500Y-52825424D01*
X28162074Y-52700674D01*
X28097498Y-52588826D01*
X28006174Y-52497502D01*
X27950250Y-52465214D01*
X27923903Y-52450002D01*
X29569196Y-52450002D01*
X29590279Y-52583121D01*
X29590280Y-52583124D01*
X29590281Y-52583126D01*
X29650174Y-52700672D01*
X29651473Y-52703221D01*
X29651476Y-52703225D01*
X29746774Y-52798523D01*
X29746778Y-52798526D01*
X29746780Y-52798528D01*
X29866874Y-52859719D01*
X29866876Y-52859719D01*
X29866878Y-52859720D01*
X29999998Y-52880804D01*
X30000000Y-52880804D01*
X30000002Y-52880804D01*
X30133121Y-52859720D01*
X30133121Y-52859719D01*
X30133126Y-52859719D01*
X30253220Y-52798528D01*
X30348528Y-52703220D01*
X30409719Y-52583126D01*
X30423280Y-52497504D01*
X30430804Y-52450002D01*
X30430804Y-52449997D01*
X30409720Y-52316878D01*
X30409719Y-52316876D01*
X30409719Y-52316874D01*
X30348528Y-52196780D01*
X30348526Y-52196778D01*
X30348523Y-52196774D01*
X30253225Y-52101476D01*
X30253221Y-52101473D01*
X30253220Y-52101472D01*
X30133126Y-52040281D01*
X30133124Y-52040280D01*
X30133121Y-52040279D01*
X30000002Y-52019196D01*
X29999998Y-52019196D01*
X29866878Y-52040279D01*
X29746778Y-52101473D01*
X29746774Y-52101476D01*
X29651476Y-52196774D01*
X29651473Y-52196778D01*
X29590279Y-52316878D01*
X29569196Y-52449997D01*
X29569196Y-52450002D01*
X27923903Y-52450002D01*
X27894327Y-52432926D01*
X27807718Y-52409720D01*
X27769576Y-52399500D01*
X27640424Y-52399500D01*
X27515672Y-52432926D01*
X27403826Y-52497502D01*
X27403823Y-52497504D01*
X27312504Y-52588823D01*
X27312502Y-52588826D01*
X27247926Y-52700672D01*
X27214500Y-52825424D01*
X27214500Y-52954575D01*
X22080500Y-52954575D01*
X22080500Y-52000002D01*
X40519196Y-52000002D01*
X40540279Y-52133121D01*
X40540280Y-52133124D01*
X40540281Y-52133126D01*
X40601472Y-52253220D01*
X40601473Y-52253221D01*
X40601476Y-52253225D01*
X40696774Y-52348523D01*
X40696778Y-52348526D01*
X40696780Y-52348528D01*
X40816874Y-52409719D01*
X40816876Y-52409719D01*
X40816878Y-52409720D01*
X40949998Y-52430804D01*
X40950000Y-52430804D01*
X40950002Y-52430804D01*
X41083121Y-52409720D01*
X41083121Y-52409719D01*
X41083126Y-52409719D01*
X41203220Y-52348528D01*
X41298528Y-52253220D01*
X41359719Y-52133126D01*
X41364732Y-52101476D01*
X41380804Y-52000002D01*
X44619196Y-52000002D01*
X44640279Y-52133121D01*
X44640280Y-52133124D01*
X44640281Y-52133126D01*
X44701472Y-52253220D01*
X44701473Y-52253221D01*
X44701476Y-52253225D01*
X44796774Y-52348523D01*
X44796778Y-52348526D01*
X44796780Y-52348528D01*
X44916874Y-52409719D01*
X44916876Y-52409719D01*
X44916878Y-52409720D01*
X45049998Y-52430804D01*
X45050000Y-52430804D01*
X45050002Y-52430804D01*
X45183121Y-52409720D01*
X45183121Y-52409719D01*
X45183126Y-52409719D01*
X45303220Y-52348528D01*
X45398528Y-52253220D01*
X45459719Y-52133126D01*
X45464732Y-52101476D01*
X45480804Y-52000002D01*
X45480804Y-51999997D01*
X45459720Y-51866878D01*
X45459719Y-51866876D01*
X45459719Y-51866874D01*
X45398528Y-51746780D01*
X45398526Y-51746778D01*
X45398523Y-51746774D01*
X45303225Y-51651476D01*
X45303221Y-51651473D01*
X45303220Y-51651472D01*
X45183126Y-51590281D01*
X45183124Y-51590280D01*
X45183121Y-51590279D01*
X45050002Y-51569196D01*
X45049998Y-51569196D01*
X44916878Y-51590279D01*
X44796778Y-51651473D01*
X44796774Y-51651476D01*
X44701476Y-51746774D01*
X44701473Y-51746778D01*
X44640279Y-51866878D01*
X44619196Y-51999997D01*
X44619196Y-52000002D01*
X41380804Y-52000002D01*
X41380804Y-51999997D01*
X41359720Y-51866878D01*
X41359719Y-51866876D01*
X41359719Y-51866874D01*
X41298528Y-51746780D01*
X41298526Y-51746778D01*
X41298523Y-51746774D01*
X41203225Y-51651476D01*
X41203221Y-51651473D01*
X41203220Y-51651472D01*
X41083126Y-51590281D01*
X41083124Y-51590280D01*
X41083121Y-51590279D01*
X40950002Y-51569196D01*
X40949998Y-51569196D01*
X40816878Y-51590279D01*
X40696778Y-51651473D01*
X40696774Y-51651476D01*
X40601476Y-51746774D01*
X40601473Y-51746778D01*
X40540279Y-51866878D01*
X40519196Y-51999997D01*
X40519196Y-52000002D01*
X22080500Y-52000002D01*
X22080500Y-50800002D01*
X34349196Y-50800002D01*
X34370279Y-50933121D01*
X34370280Y-50933124D01*
X34370281Y-50933126D01*
X34412253Y-51015500D01*
X34431473Y-51053221D01*
X34431476Y-51053225D01*
X34526774Y-51148523D01*
X34526778Y-51148526D01*
X34526780Y-51148528D01*
X34646874Y-51209719D01*
X34646876Y-51209719D01*
X34646878Y-51209720D01*
X34779998Y-51230804D01*
X34780000Y-51230804D01*
X34780002Y-51230804D01*
X34913121Y-51209720D01*
X34913121Y-51209719D01*
X34913126Y-51209719D01*
X35033220Y-51148528D01*
X35128528Y-51053220D01*
X35189719Y-50933126D01*
X35193426Y-50909720D01*
X35210804Y-50800002D01*
X35210804Y-50799997D01*
X35189720Y-50666878D01*
X35189719Y-50666876D01*
X35189719Y-50666874D01*
X35128528Y-50546780D01*
X35128526Y-50546778D01*
X35128523Y-50546774D01*
X35033225Y-50451476D01*
X35033221Y-50451473D01*
X35033220Y-50451472D01*
X34913126Y-50390281D01*
X34913124Y-50390280D01*
X34913121Y-50390279D01*
X34780002Y-50369196D01*
X34779998Y-50369196D01*
X34646878Y-50390279D01*
X34646874Y-50390280D01*
X34646874Y-50390281D01*
X34566811Y-50431075D01*
X34526778Y-50451473D01*
X34526774Y-50451476D01*
X34431476Y-50546774D01*
X34431473Y-50546778D01*
X34431472Y-50546780D01*
X34387477Y-50633126D01*
X34370279Y-50666878D01*
X34349196Y-50799997D01*
X34349196Y-50800002D01*
X22080500Y-50800002D01*
X22080500Y-50130002D01*
X37989196Y-50130002D01*
X38010279Y-50263121D01*
X38010280Y-50263124D01*
X38010281Y-50263126D01*
X38071472Y-50383220D01*
X38071473Y-50383221D01*
X38071476Y-50383225D01*
X38166774Y-50478523D01*
X38166778Y-50478526D01*
X38166780Y-50478528D01*
X38286874Y-50539719D01*
X38286876Y-50539719D01*
X38286878Y-50539720D01*
X38419998Y-50560804D01*
X38420000Y-50560804D01*
X38420002Y-50560804D01*
X38553121Y-50539720D01*
X38553121Y-50539719D01*
X38553126Y-50539719D01*
X38631075Y-50500002D01*
X39519196Y-50500002D01*
X39540279Y-50633121D01*
X39540280Y-50633124D01*
X39540281Y-50633126D01*
X39587738Y-50726265D01*
X39601473Y-50753221D01*
X39601476Y-50753225D01*
X39696774Y-50848523D01*
X39696778Y-50848526D01*
X39696780Y-50848528D01*
X39816874Y-50909719D01*
X39816876Y-50909719D01*
X39816878Y-50909720D01*
X39949998Y-50930804D01*
X39950000Y-50930804D01*
X39950002Y-50930804D01*
X40083121Y-50909720D01*
X40083121Y-50909719D01*
X40083126Y-50909719D01*
X40203220Y-50848528D01*
X40203225Y-50848523D01*
X40212319Y-50839430D01*
X40273642Y-50805945D01*
X40343334Y-50810929D01*
X40387681Y-50839430D01*
X40446774Y-50898523D01*
X40446778Y-50898526D01*
X40446780Y-50898528D01*
X40566874Y-50959719D01*
X40566876Y-50959719D01*
X40566878Y-50959720D01*
X40699998Y-50980804D01*
X40700000Y-50980804D01*
X40700002Y-50980804D01*
X40833121Y-50959720D01*
X40833121Y-50959719D01*
X40833126Y-50959719D01*
X40953220Y-50898528D01*
X41048528Y-50803220D01*
X41109719Y-50683126D01*
X41109720Y-50683121D01*
X41130804Y-50550002D01*
X41130804Y-50549997D01*
X41109720Y-50416878D01*
X41109719Y-50416876D01*
X41109719Y-50416874D01*
X41048528Y-50296780D01*
X41048526Y-50296778D01*
X41048523Y-50296774D01*
X40953225Y-50201476D01*
X40953221Y-50201473D01*
X40953220Y-50201472D01*
X40833126Y-50140281D01*
X40833124Y-50140280D01*
X40833121Y-50140279D01*
X40700002Y-50119196D01*
X40699998Y-50119196D01*
X40566878Y-50140279D01*
X40566874Y-50140280D01*
X40566874Y-50140281D01*
X40544903Y-50151476D01*
X40446778Y-50201473D01*
X40446774Y-50201476D01*
X40437681Y-50210570D01*
X40376358Y-50244055D01*
X40306666Y-50239071D01*
X40262319Y-50210570D01*
X40203225Y-50151476D01*
X40203221Y-50151473D01*
X40203220Y-50151472D01*
X40102244Y-50100022D01*
X49484500Y-50100022D01*
X49523523Y-50296203D01*
X49523526Y-50296215D01*
X49600071Y-50481013D01*
X49600078Y-50481026D01*
X49711208Y-50647343D01*
X49711211Y-50647347D01*
X49852652Y-50788788D01*
X49852656Y-50788791D01*
X50018973Y-50899921D01*
X50018986Y-50899928D01*
X50203784Y-50976473D01*
X50203789Y-50976475D01*
X50399977Y-51015499D01*
X50399981Y-51015500D01*
X50399982Y-51015500D01*
X50600019Y-51015500D01*
X50600020Y-51015499D01*
X50796211Y-50976475D01*
X50981020Y-50899925D01*
X51147344Y-50788791D01*
X51288791Y-50647344D01*
X51399925Y-50481020D01*
X51476475Y-50296211D01*
X51515499Y-50100022D01*
X56484500Y-50100022D01*
X56523523Y-50296203D01*
X56523526Y-50296215D01*
X56600071Y-50481013D01*
X56600078Y-50481026D01*
X56711208Y-50647343D01*
X56711211Y-50647347D01*
X56852652Y-50788788D01*
X56852656Y-50788791D01*
X57018973Y-50899921D01*
X57018986Y-50899928D01*
X57203784Y-50976473D01*
X57203789Y-50976475D01*
X57399977Y-51015499D01*
X57399981Y-51015500D01*
X57399982Y-51015500D01*
X57600019Y-51015500D01*
X57600020Y-51015499D01*
X57796211Y-50976475D01*
X57981020Y-50899925D01*
X58147344Y-50788791D01*
X58288791Y-50647344D01*
X58399925Y-50481020D01*
X58476475Y-50296211D01*
X58515500Y-50100018D01*
X58515500Y-49899982D01*
X58476475Y-49703789D01*
X58453837Y-49649135D01*
X58399928Y-49518986D01*
X58399921Y-49518973D01*
X58288791Y-49352656D01*
X58288788Y-49352652D01*
X58147347Y-49211211D01*
X58147343Y-49211208D01*
X57981026Y-49100078D01*
X57981013Y-49100071D01*
X57796215Y-49023526D01*
X57796203Y-49023523D01*
X57600022Y-48984500D01*
X57600018Y-48984500D01*
X57399982Y-48984500D01*
X57399977Y-48984500D01*
X57203796Y-49023523D01*
X57203784Y-49023526D01*
X57018986Y-49100071D01*
X57018973Y-49100078D01*
X56852656Y-49211208D01*
X56852652Y-49211211D01*
X56711211Y-49352652D01*
X56711208Y-49352656D01*
X56600078Y-49518973D01*
X56600071Y-49518986D01*
X56523526Y-49703784D01*
X56523523Y-49703796D01*
X56484500Y-49899977D01*
X56484500Y-50100022D01*
X51515499Y-50100022D01*
X51515500Y-50100018D01*
X51515500Y-49899982D01*
X51476475Y-49703789D01*
X51453837Y-49649135D01*
X51399928Y-49518986D01*
X51399921Y-49518973D01*
X51288791Y-49352656D01*
X51288788Y-49352652D01*
X51147347Y-49211211D01*
X51147343Y-49211208D01*
X50981026Y-49100078D01*
X50981013Y-49100071D01*
X50796215Y-49023526D01*
X50796203Y-49023523D01*
X50600022Y-48984500D01*
X50600018Y-48984500D01*
X50399982Y-48984500D01*
X50399977Y-48984500D01*
X50203796Y-49023523D01*
X50203784Y-49023526D01*
X50018986Y-49100071D01*
X50018973Y-49100078D01*
X49852656Y-49211208D01*
X49852652Y-49211211D01*
X49711211Y-49352652D01*
X49711208Y-49352656D01*
X49600078Y-49518973D01*
X49600071Y-49518986D01*
X49523526Y-49703784D01*
X49523523Y-49703796D01*
X49484500Y-49899977D01*
X49484500Y-50100022D01*
X40102244Y-50100022D01*
X40083126Y-50090281D01*
X40083124Y-50090280D01*
X40083121Y-50090279D01*
X39950002Y-50069196D01*
X39949998Y-50069196D01*
X39816878Y-50090279D01*
X39696778Y-50151473D01*
X39696774Y-50151476D01*
X39601476Y-50246774D01*
X39601473Y-50246778D01*
X39540279Y-50366878D01*
X39519196Y-50499997D01*
X39519196Y-50500002D01*
X38631075Y-50500002D01*
X38673220Y-50478528D01*
X38768528Y-50383220D01*
X38829719Y-50263126D01*
X38838043Y-50210570D01*
X38850804Y-50130002D01*
X38850804Y-50129997D01*
X38829720Y-49996878D01*
X38829719Y-49996876D01*
X38829719Y-49996874D01*
X38768528Y-49876780D01*
X38768526Y-49876778D01*
X38768523Y-49876774D01*
X38673225Y-49781476D01*
X38673221Y-49781473D01*
X38673220Y-49781472D01*
X38553126Y-49720281D01*
X38553124Y-49720280D01*
X38553121Y-49720279D01*
X38420002Y-49699196D01*
X38419998Y-49699196D01*
X38286878Y-49720279D01*
X38166778Y-49781473D01*
X38166773Y-49781477D01*
X38152003Y-49796247D01*
X38090679Y-49829731D01*
X38083565Y-49829222D01*
X38075191Y-49867722D01*
X38075903Y-49868085D01*
X38074523Y-49870792D01*
X38074509Y-49870859D01*
X38074408Y-49871018D01*
X38071472Y-49876779D01*
X38071472Y-49876780D01*
X38059650Y-49899982D01*
X38010279Y-49996878D01*
X37989196Y-50129997D01*
X37989196Y-50130002D01*
X22080500Y-50130002D01*
X22080500Y-49400002D01*
X29469196Y-49400002D01*
X29490279Y-49533121D01*
X29490280Y-49533124D01*
X29490281Y-49533126D01*
X29550992Y-49652277D01*
X29551473Y-49653221D01*
X29551476Y-49653225D01*
X29646774Y-49748523D01*
X29646778Y-49748526D01*
X29646780Y-49748528D01*
X29766874Y-49809719D01*
X29766876Y-49809719D01*
X29766878Y-49809720D01*
X29899998Y-49830804D01*
X29900000Y-49830804D01*
X29900002Y-49830804D01*
X30033121Y-49809720D01*
X30033121Y-49809719D01*
X30033126Y-49809719D01*
X30153220Y-49748528D01*
X30248528Y-49653220D01*
X30309719Y-49533126D01*
X30311959Y-49518986D01*
X30330804Y-49400002D01*
X30330804Y-49399997D01*
X30329221Y-49390002D01*
X37179196Y-49390002D01*
X37200279Y-49523121D01*
X37200280Y-49523124D01*
X37200281Y-49523126D01*
X37261472Y-49643220D01*
X37261473Y-49643221D01*
X37261476Y-49643225D01*
X37356774Y-49738523D01*
X37356778Y-49738526D01*
X37356780Y-49738528D01*
X37476874Y-49799719D01*
X37476876Y-49799719D01*
X37476878Y-49799720D01*
X37609998Y-49820804D01*
X37610000Y-49820804D01*
X37610002Y-49820804D01*
X37743121Y-49799720D01*
X37743121Y-49799719D01*
X37743126Y-49799719D01*
X37863220Y-49738528D01*
X37877992Y-49723756D01*
X37939314Y-49690269D01*
X37946433Y-49690778D01*
X37954809Y-49652277D01*
X37954097Y-49651915D01*
X37955477Y-49649205D01*
X37955493Y-49649135D01*
X37955597Y-49648970D01*
X37958525Y-49643222D01*
X37958528Y-49643220D01*
X38019719Y-49523126D01*
X38040804Y-49390000D01*
X38034889Y-49352656D01*
X38019720Y-49256878D01*
X38019719Y-49256876D01*
X38019719Y-49256874D01*
X37958528Y-49136780D01*
X37958526Y-49136778D01*
X37958523Y-49136774D01*
X37863225Y-49041476D01*
X37863221Y-49041473D01*
X37863220Y-49041472D01*
X37743126Y-48980281D01*
X37743124Y-48980280D01*
X37743121Y-48980279D01*
X37610002Y-48959196D01*
X37609998Y-48959196D01*
X37476878Y-48980279D01*
X37356778Y-49041473D01*
X37356774Y-49041476D01*
X37261476Y-49136774D01*
X37261473Y-49136778D01*
X37261472Y-49136780D01*
X37223549Y-49211209D01*
X37200279Y-49256878D01*
X37179196Y-49389997D01*
X37179196Y-49390002D01*
X30329221Y-49390002D01*
X30309720Y-49266878D01*
X30309719Y-49266876D01*
X30309719Y-49266874D01*
X30248528Y-49146780D01*
X30248526Y-49146778D01*
X30248523Y-49146774D01*
X30153225Y-49051476D01*
X30153221Y-49051473D01*
X30153220Y-49051472D01*
X30033126Y-48990281D01*
X30033124Y-48990280D01*
X30033121Y-48990279D01*
X29900002Y-48969196D01*
X29899998Y-48969196D01*
X29766878Y-48990279D01*
X29646778Y-49051473D01*
X29646774Y-49051476D01*
X29551476Y-49146774D01*
X29551473Y-49146778D01*
X29490279Y-49266878D01*
X29469196Y-49399997D01*
X29469196Y-49400002D01*
X22080500Y-49400002D01*
X22080500Y-48435002D01*
X43914196Y-48435002D01*
X43935279Y-48568121D01*
X43935280Y-48568124D01*
X43935281Y-48568126D01*
X43996472Y-48688220D01*
X43996473Y-48688221D01*
X43996476Y-48688225D01*
X44091774Y-48783523D01*
X44091778Y-48783526D01*
X44091780Y-48783528D01*
X44211874Y-48844719D01*
X44211876Y-48844719D01*
X44211878Y-48844720D01*
X44344998Y-48865804D01*
X44345000Y-48865804D01*
X44345002Y-48865804D01*
X44478121Y-48844720D01*
X44478121Y-48844719D01*
X44478126Y-48844719D01*
X44598220Y-48783528D01*
X44693528Y-48688220D01*
X44754719Y-48568126D01*
X44775804Y-48435000D01*
X44754719Y-48301874D01*
X44693528Y-48181780D01*
X44693526Y-48181778D01*
X44693523Y-48181774D01*
X44598225Y-48086476D01*
X44598221Y-48086473D01*
X44598220Y-48086472D01*
X44478126Y-48025281D01*
X44478124Y-48025280D01*
X44478121Y-48025279D01*
X44345002Y-48004196D01*
X44344998Y-48004196D01*
X44211878Y-48025279D01*
X44091778Y-48086473D01*
X44091774Y-48086476D01*
X43996476Y-48181774D01*
X43996473Y-48181778D01*
X43935279Y-48301878D01*
X43914196Y-48434997D01*
X43914196Y-48435002D01*
X22080500Y-48435002D01*
X22080500Y-47174575D01*
X27214500Y-47174575D01*
X27247926Y-47299327D01*
X27280214Y-47355250D01*
X27312502Y-47411174D01*
X27403826Y-47502498D01*
X27515674Y-47567074D01*
X27640424Y-47600500D01*
X27640426Y-47600500D01*
X27769574Y-47600500D01*
X27769576Y-47600500D01*
X27894326Y-47567074D01*
X28006174Y-47502498D01*
X28008670Y-47500002D01*
X29569196Y-47500002D01*
X29590279Y-47633121D01*
X29590280Y-47633124D01*
X29590281Y-47633126D01*
X29651472Y-47753220D01*
X29651473Y-47753221D01*
X29651476Y-47753225D01*
X29746774Y-47848523D01*
X29746778Y-47848526D01*
X29746780Y-47848528D01*
X29866874Y-47909719D01*
X29866876Y-47909719D01*
X29866878Y-47909720D01*
X29999998Y-47930804D01*
X30000000Y-47930804D01*
X30000002Y-47930804D01*
X30133121Y-47909720D01*
X30133121Y-47909719D01*
X30133126Y-47909719D01*
X30253220Y-47848528D01*
X30348528Y-47753220D01*
X30409719Y-47633126D01*
X30409720Y-47633121D01*
X30430804Y-47500002D01*
X30430804Y-47499997D01*
X30409720Y-47366878D01*
X30409719Y-47366876D01*
X30409719Y-47366874D01*
X30348528Y-47246780D01*
X30348526Y-47246778D01*
X30348523Y-47246774D01*
X30253225Y-47151476D01*
X30253221Y-47151473D01*
X30253220Y-47151472D01*
X30133126Y-47090281D01*
X30133124Y-47090280D01*
X30133121Y-47090279D01*
X30000002Y-47069196D01*
X29999998Y-47069196D01*
X29866878Y-47090279D01*
X29746778Y-47151473D01*
X29746774Y-47151476D01*
X29651476Y-47246774D01*
X29651473Y-47246778D01*
X29590279Y-47366878D01*
X29569196Y-47499997D01*
X29569196Y-47500002D01*
X28008670Y-47500002D01*
X28097498Y-47411174D01*
X28162074Y-47299326D01*
X28195500Y-47174576D01*
X28195500Y-47045424D01*
X28162074Y-46920674D01*
X28097498Y-46808826D01*
X28006174Y-46717502D01*
X27950250Y-46685214D01*
X27894327Y-46652926D01*
X27837911Y-46637810D01*
X27787395Y-46624274D01*
X27727735Y-46587910D01*
X27704788Y-46540672D01*
X27684224Y-46585703D01*
X27625446Y-46623477D01*
X27622622Y-46624269D01*
X27589535Y-46633135D01*
X27515672Y-46652926D01*
X27403826Y-46717502D01*
X27403823Y-46717504D01*
X27312504Y-46808823D01*
X27312502Y-46808826D01*
X27247926Y-46920672D01*
X27214500Y-47045424D01*
X27214500Y-47174575D01*
X22080500Y-47174575D01*
X22080500Y-46470002D01*
X43429196Y-46470002D01*
X43450279Y-46603121D01*
X43450280Y-46603124D01*
X43450281Y-46603126D01*
X43508559Y-46717502D01*
X43511473Y-46723221D01*
X43511476Y-46723225D01*
X43606774Y-46818523D01*
X43606778Y-46818526D01*
X43606780Y-46818528D01*
X43726874Y-46879719D01*
X43726876Y-46879719D01*
X43726878Y-46879720D01*
X43859998Y-46900804D01*
X43860000Y-46900804D01*
X43860002Y-46900804D01*
X43993121Y-46879720D01*
X43993121Y-46879719D01*
X43993126Y-46879719D01*
X44113220Y-46818528D01*
X44208528Y-46723220D01*
X44269719Y-46603126D01*
X44290804Y-46470000D01*
X44289624Y-46462552D01*
X44269720Y-46336878D01*
X44269719Y-46336876D01*
X44269719Y-46336874D01*
X44208528Y-46216780D01*
X44208526Y-46216778D01*
X44208523Y-46216774D01*
X44113225Y-46121476D01*
X44113221Y-46121473D01*
X44113220Y-46121472D01*
X43993126Y-46060281D01*
X43993124Y-46060280D01*
X43993121Y-46060279D01*
X43860002Y-46039196D01*
X43859998Y-46039196D01*
X43726878Y-46060279D01*
X43606778Y-46121473D01*
X43606774Y-46121476D01*
X43511476Y-46216774D01*
X43511473Y-46216778D01*
X43450279Y-46336878D01*
X43429196Y-46469997D01*
X43429196Y-46470002D01*
X22080500Y-46470002D01*
X22080500Y-45748995D01*
X22924499Y-45748995D01*
X22951418Y-45884322D01*
X22951421Y-45884332D01*
X23004221Y-46011804D01*
X23004228Y-46011817D01*
X23080885Y-46126541D01*
X23080888Y-46126545D01*
X23178454Y-46224111D01*
X23178458Y-46224114D01*
X23293182Y-46300771D01*
X23293195Y-46300778D01*
X23420667Y-46353578D01*
X23420672Y-46353580D01*
X23420676Y-46353580D01*
X23420677Y-46353581D01*
X23556004Y-46380500D01*
X23556007Y-46380500D01*
X24493995Y-46380500D01*
X24585041Y-46362389D01*
X24629328Y-46353580D01*
X24756811Y-46300775D01*
X24871542Y-46224114D01*
X24969114Y-46126542D01*
X25045775Y-46011811D01*
X25098580Y-45884328D01*
X25125500Y-45748995D01*
X26954499Y-45748995D01*
X26981418Y-45884322D01*
X26981421Y-45884332D01*
X27034221Y-46011804D01*
X27034228Y-46011817D01*
X27110885Y-46126541D01*
X27110888Y-46126545D01*
X27208454Y-46224111D01*
X27208458Y-46224114D01*
X27323182Y-46300771D01*
X27323195Y-46300778D01*
X27450667Y-46353578D01*
X27450672Y-46353580D01*
X27450676Y-46353580D01*
X27450677Y-46353581D01*
X27586004Y-46380500D01*
X27590511Y-46380500D01*
X27657550Y-46400185D01*
X27703305Y-46452989D01*
X27704680Y-46462552D01*
X27705501Y-46455688D01*
X27749986Y-46401810D01*
X27816538Y-46380535D01*
X27819489Y-46380500D01*
X28823995Y-46380500D01*
X28915041Y-46362389D01*
X28959328Y-46353580D01*
X29086811Y-46300775D01*
X29201542Y-46224114D01*
X29299114Y-46126542D01*
X29375775Y-46011811D01*
X29428580Y-45884328D01*
X29455500Y-45748993D01*
X29455500Y-45611007D01*
X29455500Y-45611004D01*
X29428581Y-45475677D01*
X29428580Y-45475676D01*
X29428580Y-45475672D01*
X29428578Y-45475667D01*
X29375778Y-45348195D01*
X29375771Y-45348182D01*
X29299114Y-45233458D01*
X29299111Y-45233454D01*
X29201545Y-45135888D01*
X29201541Y-45135885D01*
X29086817Y-45059228D01*
X29086804Y-45059221D01*
X28959332Y-45006421D01*
X28959322Y-45006418D01*
X28823995Y-44979500D01*
X28823993Y-44979500D01*
X27586007Y-44979500D01*
X27586005Y-44979500D01*
X27450677Y-45006418D01*
X27450667Y-45006421D01*
X27323195Y-45059221D01*
X27323182Y-45059228D01*
X27208458Y-45135885D01*
X27208454Y-45135888D01*
X27110888Y-45233454D01*
X27110885Y-45233458D01*
X27034228Y-45348182D01*
X27034221Y-45348195D01*
X26981421Y-45475667D01*
X26981418Y-45475677D01*
X26954500Y-45611004D01*
X26954500Y-45611007D01*
X26954500Y-45748993D01*
X26954500Y-45748995D01*
X26954499Y-45748995D01*
X25125500Y-45748995D01*
X25125500Y-45748993D01*
X25125500Y-45611007D01*
X25125500Y-45611004D01*
X25098581Y-45475677D01*
X25098580Y-45475676D01*
X25098580Y-45475672D01*
X25098578Y-45475667D01*
X25045778Y-45348195D01*
X25045771Y-45348182D01*
X24969114Y-45233458D01*
X24969111Y-45233454D01*
X24871545Y-45135888D01*
X24871541Y-45135885D01*
X24756817Y-45059228D01*
X24756804Y-45059221D01*
X24629332Y-45006421D01*
X24629322Y-45006418D01*
X24493995Y-44979500D01*
X24493993Y-44979500D01*
X23556007Y-44979500D01*
X23556005Y-44979500D01*
X23420677Y-45006418D01*
X23420667Y-45006421D01*
X23293195Y-45059221D01*
X23293182Y-45059228D01*
X23178458Y-45135885D01*
X23178454Y-45135888D01*
X23080888Y-45233454D01*
X23080885Y-45233458D01*
X23004228Y-45348182D01*
X23004221Y-45348195D01*
X22951421Y-45475667D01*
X22951418Y-45475677D01*
X22924500Y-45611004D01*
X22924500Y-45611007D01*
X22924500Y-45748993D01*
X22924500Y-45748995D01*
X22924499Y-45748995D01*
X22080500Y-45748995D01*
X22080500Y-45005411D01*
X22080972Y-44994604D01*
X22093523Y-44851141D01*
X22097276Y-44829854D01*
X22126905Y-44719278D01*
X22133147Y-44695982D01*
X22140535Y-44675684D01*
X22199108Y-44550074D01*
X22209908Y-44531368D01*
X22289404Y-44417835D01*
X22303287Y-44401291D01*
X22401291Y-44303287D01*
X22417835Y-44289404D01*
X22531368Y-44209908D01*
X22550074Y-44199108D01*
X22675684Y-44140535D01*
X22695982Y-44133147D01*
X22829857Y-44097275D01*
X22851138Y-44093523D01*
X22994605Y-44080972D01*
X23005412Y-44080500D01*
X23026156Y-44080500D01*
X60973844Y-44080500D01*
X60994588Y-44080500D01*
X61005395Y-44080972D01*
G37*
%TD.AperFunction*%
%TD*%
M02*
