%TF.GenerationSoftware,KiCad,Pcbnew,8.0.1-8.0.1-1~ubuntu22.04.1*%
%TF.CreationDate,2024-03-29T11:51:52+01:00*%
%TF.ProjectId,usb2mid,75736232-6d69-4642-9e6b-696361645f70,rev?*%
%TF.SameCoordinates,Original*%
%TF.FileFunction,Soldermask,Top*%
%TF.FilePolarity,Negative*%
%FSLAX46Y46*%
G04 Gerber Fmt 4.6, Leading zero omitted, Abs format (unit mm)*
G04 Created by KiCad (PCBNEW 8.0.1-8.0.1-1~ubuntu22.04.1) date 2024-03-29 11:51:52*
%MOMM*%
%LPD*%
G01*
G04 APERTURE LIST*
G04 Aperture macros list*
%AMRoundRect*
0 Rectangle with rounded corners*
0 $1 Rounding radius*
0 $2 $3 $4 $5 $6 $7 $8 $9 X,Y pos of 4 corners*
0 Add a 4 corners polygon primitive as box body*
4,1,4,$2,$3,$4,$5,$6,$7,$8,$9,$2,$3,0*
0 Add four circle primitives for the rounded corners*
1,1,$1+$1,$2,$3*
1,1,$1+$1,$4,$5*
1,1,$1+$1,$6,$7*
1,1,$1+$1,$8,$9*
0 Add four rect primitives between the rounded corners*
20,1,$1+$1,$2,$3,$4,$5,0*
20,1,$1+$1,$4,$5,$6,$7,0*
20,1,$1+$1,$6,$7,$8,$9,0*
20,1,$1+$1,$8,$9,$2,$3,0*%
%AMFreePoly0*
4,1,19,0.550000,-0.750000,0.000000,-0.750000,0.000000,-0.744911,-0.071157,-0.744911,-0.207708,-0.704816,-0.327430,-0.627875,-0.420627,-0.520320,-0.479746,-0.390866,-0.500000,-0.250000,-0.500000,0.250000,-0.479746,0.390866,-0.420627,0.520320,-0.327430,0.627875,-0.207708,0.704816,-0.071157,0.744911,0.000000,0.744911,0.000000,0.750000,0.550000,0.750000,0.550000,-0.750000,0.550000,-0.750000,
$1*%
%AMFreePoly1*
4,1,19,0.000000,0.744911,0.071157,0.744911,0.207708,0.704816,0.327430,0.627875,0.420627,0.520320,0.479746,0.390866,0.500000,0.250000,0.500000,-0.250000,0.479746,-0.390866,0.420627,-0.520320,0.327430,-0.627875,0.207708,-0.704816,0.071157,-0.744911,0.000000,-0.744911,0.000000,-0.750000,-0.550000,-0.750000,-0.550000,0.750000,0.000000,0.750000,0.000000,0.744911,0.000000,0.744911,
$1*%
G04 Aperture macros list end*
%ADD10FreePoly0,0.000000*%
%ADD11R,1.000000X1.500000*%
%ADD12FreePoly1,0.000000*%
%ADD13C,0.650000*%
%ADD14RoundRect,0.150000X-0.425000X0.150000X-0.425000X-0.150000X0.425000X-0.150000X0.425000X0.150000X0*%
%ADD15RoundRect,0.075000X-0.500000X0.075000X-0.500000X-0.075000X0.500000X-0.075000X0.500000X0.075000X0*%
%ADD16O,2.100000X1.000000*%
%ADD17O,1.800000X1.000000*%
%ADD18RoundRect,0.140000X-0.170000X0.140000X-0.170000X-0.140000X0.170000X-0.140000X0.170000X0.140000X0*%
%ADD19RoundRect,0.140000X0.140000X0.170000X-0.140000X0.170000X-0.140000X-0.170000X0.140000X-0.170000X0*%
%ADD20RoundRect,0.140000X0.170000X-0.140000X0.170000X0.140000X-0.170000X0.140000X-0.170000X-0.140000X0*%
%ADD21RoundRect,0.218750X-0.256250X0.218750X-0.256250X-0.218750X0.256250X-0.218750X0.256250X0.218750X0*%
%ADD22RoundRect,0.150000X-0.512500X-0.150000X0.512500X-0.150000X0.512500X0.150000X-0.512500X0.150000X0*%
%ADD23RoundRect,0.200000X-0.275000X0.200000X-0.275000X-0.200000X0.275000X-0.200000X0.275000X0.200000X0*%
%ADD24RoundRect,0.250000X-0.262500X-0.450000X0.262500X-0.450000X0.262500X0.450000X-0.262500X0.450000X0*%
%ADD25C,1.700000*%
%ADD26R,2.200000X2.800000*%
%ADD27R,2.800000X2.800000*%
%ADD28RoundRect,0.225000X-0.225000X-0.250000X0.225000X-0.250000X0.225000X0.250000X-0.225000X0.250000X0*%
%ADD29RoundRect,0.140000X-0.140000X-0.170000X0.140000X-0.170000X0.140000X0.170000X-0.140000X0.170000X0*%
%ADD30RoundRect,0.062500X0.375000X0.062500X-0.375000X0.062500X-0.375000X-0.062500X0.375000X-0.062500X0*%
%ADD31RoundRect,0.062500X0.062500X0.375000X-0.062500X0.375000X-0.062500X-0.375000X0.062500X-0.375000X0*%
%ADD32R,3.450000X3.450000*%
%ADD33RoundRect,0.150000X0.512500X0.150000X-0.512500X0.150000X-0.512500X-0.150000X0.512500X-0.150000X0*%
%ADD34RoundRect,0.135000X-0.135000X-0.185000X0.135000X-0.185000X0.135000X0.185000X-0.135000X0.185000X0*%
G04 APERTURE END LIST*
D10*
%TO.C,JP1*%
X41700000Y-52000000D03*
D11*
X43000000Y-52000000D03*
D12*
X44300000Y-52000000D03*
%TD*%
D13*
%TO.C,J1*%
X27705000Y-47110000D03*
X27705000Y-52890000D03*
D14*
X28780000Y-46800000D03*
X28780000Y-47600000D03*
D15*
X28780000Y-48750000D03*
X28780000Y-49750000D03*
X28780000Y-50250000D03*
X28780000Y-51250000D03*
D14*
X28780000Y-52400000D03*
X28780000Y-53200000D03*
X28780000Y-53200000D03*
X28780000Y-52400000D03*
D15*
X28780000Y-51750000D03*
X28780000Y-50750000D03*
X28780000Y-49250000D03*
X28780000Y-48250000D03*
D14*
X28780000Y-47600000D03*
X28780000Y-46800000D03*
D16*
X28205000Y-45680000D03*
D17*
X24025000Y-45680000D03*
D16*
X28205000Y-54320000D03*
D17*
X24025000Y-54320000D03*
%TD*%
D18*
%TO.C,C3*%
X30900000Y-53020000D03*
X30900000Y-53980000D03*
%TD*%
D19*
%TO.C,C4*%
X34780000Y-51700000D03*
X33820000Y-51700000D03*
%TD*%
D20*
%TO.C,C1*%
X44400000Y-47880000D03*
X44400000Y-46920000D03*
%TD*%
D21*
%TO.C,D1*%
X34900000Y-44912500D03*
X34900000Y-46487500D03*
%TD*%
D22*
%TO.C,U3*%
X32462500Y-53050000D03*
X32462500Y-54000000D03*
X32462500Y-54950000D03*
X34737500Y-54950000D03*
X34737500Y-53050000D03*
%TD*%
D23*
%TO.C,R6*%
X36700000Y-47975000D03*
X36700000Y-49625000D03*
%TD*%
D24*
%TO.C,R4*%
X38087500Y-52000000D03*
X39912500Y-52000000D03*
%TD*%
D25*
%TO.C,J2*%
X57500000Y-50000000D03*
X50500000Y-50000000D03*
D26*
X56600000Y-53700000D03*
X58600000Y-46300000D03*
D27*
X49200000Y-46300000D03*
%TD*%
D28*
%TO.C,C7*%
X31225000Y-46500000D03*
X32775000Y-46500000D03*
%TD*%
D21*
%TO.C,D2*%
X36700000Y-44912500D03*
X36700000Y-46487500D03*
%TD*%
D29*
%TO.C,C5*%
X44420000Y-45900000D03*
X45380000Y-45900000D03*
%TD*%
D10*
%TO.C,JP2*%
X41700000Y-54500000D03*
D11*
X43000000Y-54500000D03*
D12*
X44300000Y-54500000D03*
%TD*%
D30*
%TO.C,U1*%
X43137500Y-49150000D03*
X43137500Y-48650000D03*
X43137500Y-48150000D03*
X43137500Y-47650000D03*
X43137500Y-47150000D03*
X43137500Y-46650000D03*
X43137500Y-46150000D03*
X43137500Y-45650000D03*
D31*
X42450000Y-44962500D03*
X41950000Y-44962500D03*
X41450000Y-44962500D03*
X40950000Y-44962500D03*
X40450000Y-44962500D03*
X39950000Y-44962500D03*
X39450000Y-44962500D03*
X38950000Y-44962500D03*
D30*
X38262500Y-45650000D03*
X38262500Y-46150000D03*
X38262500Y-46650000D03*
X38262500Y-47150000D03*
X38262500Y-47650000D03*
X38262500Y-48150000D03*
X38262500Y-48650000D03*
X38262500Y-49150000D03*
D31*
X38950000Y-49837500D03*
X39450000Y-49837500D03*
X39950000Y-49837500D03*
X40450000Y-49837500D03*
X40950000Y-49837500D03*
X41450000Y-49837500D03*
X41950000Y-49837500D03*
X42450000Y-49837500D03*
D32*
X40700000Y-47400000D03*
%TD*%
D33*
%TO.C,U2*%
X33137500Y-50350000D03*
X33137500Y-49400000D03*
X33137500Y-48450000D03*
X30862500Y-48450000D03*
X30862500Y-49400000D03*
X30862500Y-50350000D03*
%TD*%
D23*
%TO.C,R5*%
X34900000Y-47975000D03*
X34900000Y-49625000D03*
%TD*%
D34*
%TO.C,R2*%
X30890000Y-51700000D03*
X31910000Y-51700000D03*
%TD*%
%TO.C,R1*%
X30590000Y-44800000D03*
X31610000Y-44800000D03*
%TD*%
D24*
%TO.C,R3*%
X38087500Y-54500000D03*
X39912500Y-54500000D03*
%TD*%
M02*
