%TF.GenerationSoftware,KiCad,Pcbnew,8.0.0*%
%TF.CreationDate,2024-02-29T11:48:50+01:00*%
%TF.ProjectId,usb2mid,75736232-6d69-4642-9e6b-696361645f70,rev?*%
%TF.SameCoordinates,Original*%
%TF.FileFunction,Paste,Top*%
%TF.FilePolarity,Positive*%
%FSLAX46Y46*%
G04 Gerber Fmt 4.6, Leading zero omitted, Abs format (unit mm)*
G04 Created by KiCad (PCBNEW 8.0.0) date 2024-02-29 11:48:50*
%MOMM*%
%LPD*%
G01*
G04 APERTURE LIST*
G04 Aperture macros list*
%AMRoundRect*
0 Rectangle with rounded corners*
0 $1 Rounding radius*
0 $2 $3 $4 $5 $6 $7 $8 $9 X,Y pos of 4 corners*
0 Add a 4 corners polygon primitive as box body*
4,1,4,$2,$3,$4,$5,$6,$7,$8,$9,$2,$3,0*
0 Add four circle primitives for the rounded corners*
1,1,$1+$1,$2,$3*
1,1,$1+$1,$4,$5*
1,1,$1+$1,$6,$7*
1,1,$1+$1,$8,$9*
0 Add four rect primitives between the rounded corners*
20,1,$1+$1,$2,$3,$4,$5,0*
20,1,$1+$1,$4,$5,$6,$7,0*
20,1,$1+$1,$6,$7,$8,$9,0*
20,1,$1+$1,$8,$9,$2,$3,0*%
G04 Aperture macros list end*
%ADD10R,1.160000X0.480000*%
%ADD11R,1.160000X0.240000*%
%ADD12RoundRect,0.112000X-0.136000X0.112000X-0.136000X-0.112000X0.136000X-0.112000X0.136000X0.112000X0*%
%ADD13RoundRect,0.112000X0.112000X0.136000X-0.112000X0.136000X-0.112000X-0.136000X0.112000X-0.136000X0*%
%ADD14RoundRect,0.112000X0.136000X-0.112000X0.136000X0.112000X-0.136000X0.112000X-0.136000X-0.112000X0*%
%ADD15RoundRect,0.175000X-0.205000X0.175000X-0.205000X-0.175000X0.205000X-0.175000X0.205000X0.175000X0*%
%ADD16RoundRect,0.120000X-0.410000X-0.120000X0.410000X-0.120000X0.410000X0.120000X-0.410000X0.120000X0*%
%ADD17RoundRect,0.160000X-0.220000X0.160000X-0.220000X-0.160000X0.220000X-0.160000X0.220000X0.160000X0*%
%ADD18RoundRect,0.200000X-0.210000X-0.360000X0.210000X-0.360000X0.210000X0.360000X-0.210000X0.360000X0*%
%ADD19R,1.760000X2.240000*%
%ADD20R,2.240000X2.240000*%
%ADD21RoundRect,0.112000X-0.112000X-0.136000X0.112000X-0.136000X0.112000X0.136000X-0.112000X0.136000X0*%
%ADD22RoundRect,0.232500X0.232500X0.232500X-0.232500X0.232500X-0.232500X-0.232500X0.232500X-0.232500X0*%
%ADD23RoundRect,0.050000X0.300000X0.050000X-0.300000X0.050000X-0.300000X-0.050000X0.300000X-0.050000X0*%
%ADD24RoundRect,0.050000X0.050000X0.300000X-0.050000X0.300000X-0.050000X-0.300000X0.050000X-0.300000X0*%
%ADD25RoundRect,0.120000X0.120000X-0.410000X0.120000X0.410000X-0.120000X0.410000X-0.120000X-0.410000X0*%
%ADD26RoundRect,0.108000X-0.108000X-0.148000X0.108000X-0.148000X0.108000X0.148000X-0.108000X0.148000X0*%
G04 APERTURE END LIST*
D10*
%TO.C,J1*%
X29045000Y-46750000D03*
X29045000Y-47550000D03*
D11*
X29045000Y-48750000D03*
X29045000Y-49750000D03*
X29045000Y-50250000D03*
X29045000Y-51250000D03*
D10*
X29045000Y-52450000D03*
X29045000Y-53250000D03*
X29045000Y-53250000D03*
X29045000Y-52450000D03*
D11*
X29045000Y-51750000D03*
X29045000Y-50750000D03*
X29045000Y-49250000D03*
X29045000Y-48250000D03*
D10*
X29045000Y-47550000D03*
X29045000Y-46750000D03*
%TD*%
D12*
%TO.C,C3*%
X30900000Y-53020000D03*
X30900000Y-53980000D03*
%TD*%
D13*
%TO.C,C4*%
X34780000Y-51700000D03*
X33820000Y-51700000D03*
%TD*%
D14*
%TO.C,C1*%
X44400000Y-47880000D03*
X44400000Y-46920000D03*
%TD*%
D15*
%TO.C,D1*%
X34900000Y-44912500D03*
X34900000Y-46487500D03*
%TD*%
D16*
%TO.C,U3*%
X32462500Y-53050000D03*
X32462500Y-54000000D03*
X32462500Y-54950000D03*
X34737500Y-54950000D03*
X34737500Y-53050000D03*
%TD*%
D17*
%TO.C,R6*%
X36700000Y-47975000D03*
X36700000Y-49625000D03*
%TD*%
D18*
%TO.C,R4*%
X38087500Y-52000000D03*
X39912500Y-52000000D03*
%TD*%
D19*
%TO.C,J2*%
X56600000Y-53700000D03*
X58600000Y-46300000D03*
D20*
X49200000Y-46300000D03*
%TD*%
D15*
%TO.C,D2*%
X36700000Y-44912500D03*
X36700000Y-46487500D03*
%TD*%
D21*
%TO.C,C5*%
X44420000Y-45900000D03*
X45380000Y-45900000D03*
%TD*%
D22*
%TO.C,U1*%
X41850000Y-48550000D03*
X41850000Y-47400000D03*
X41850000Y-46250000D03*
X40700000Y-48550000D03*
X40700000Y-47400000D03*
X40700000Y-46250000D03*
X39550000Y-48550000D03*
X39550000Y-47400000D03*
X39550000Y-46250000D03*
D23*
X43137500Y-49150000D03*
X43137500Y-48650000D03*
X43137500Y-48150000D03*
X43137500Y-47650000D03*
X43137500Y-47150000D03*
X43137500Y-46650000D03*
X43137500Y-46150000D03*
X43137500Y-45650000D03*
D24*
X42450000Y-44962500D03*
X41950000Y-44962500D03*
X41450000Y-44962500D03*
X40950000Y-44962500D03*
X40450000Y-44962500D03*
X39950000Y-44962500D03*
X39450000Y-44962500D03*
X38950000Y-44962500D03*
D23*
X38262500Y-45650000D03*
X38262500Y-46150000D03*
X38262500Y-46650000D03*
X38262500Y-47150000D03*
X38262500Y-47650000D03*
X38262500Y-48150000D03*
X38262500Y-48650000D03*
X38262500Y-49150000D03*
D24*
X38950000Y-49837500D03*
X39450000Y-49837500D03*
X39950000Y-49837500D03*
X40450000Y-49837500D03*
X40950000Y-49837500D03*
X41450000Y-49837500D03*
X41950000Y-49837500D03*
X42450000Y-49837500D03*
%TD*%
D25*
%TO.C,U2*%
X31250000Y-50137500D03*
X32200000Y-50137500D03*
X33150000Y-50137500D03*
X33150000Y-47862500D03*
X32200000Y-47862500D03*
X31250000Y-47862500D03*
%TD*%
D17*
%TO.C,R5*%
X34900000Y-47975000D03*
X34900000Y-49625000D03*
%TD*%
D26*
%TO.C,R2*%
X30890000Y-51700000D03*
X31910000Y-51700000D03*
%TD*%
%TO.C,R1*%
X30990000Y-46000000D03*
X32010000Y-46000000D03*
%TD*%
D14*
%TO.C,C2*%
X45400000Y-47880000D03*
X45400000Y-46920000D03*
%TD*%
D18*
%TO.C,R3*%
X38087500Y-54500000D03*
X39912500Y-54500000D03*
%TD*%
M02*
